<?xml version="1.0" encoding="iso-8859-1"?>
<!-- Generator: Adobe Illustrator 19.0.0, SVG Export Plug-In . SVG Version: 6.00 Build 0)  -->
<svg version="1.1" id="Capa_1" xmlns="http://www.w3.org/2000/svg" xmlns:xlink="http://www.w3.org/1999/xlink" x="0px" y="0px"
	 viewBox="0 0 184.803 184.803" style="enable-background:new 0 0 184.803 184.803;" xml:space="preserve">
<g>
	<g>
		<path style="fill:#E9E2D8;" d="M63.389,69.93c-0.613,1.587-1.513,2.998-2.698,4.184c-7.332,7.324-23.146,3.591-36.487-8.197
			c-0.968-0.852-1.914-1.744-2.848-2.678C7.49,49.373,2.626,31.767,10.482,23.91c7.863-7.862,25.469-2.991,39.335,10.868
			c3.345,3.346,6.167,6.909,8.408,10.5C63.886,54.326,65.883,63.552,63.389,69.93z"/>
		<path style="fill:#1D1814;" d="M50.431,68.331c-4.841,0-13.594-3.1-22.331-11.837c-5.477-5.478-9.535-11.934-11.132-17.714
			c-1.177-4.258-0.717-7.15,0.26-8.128c0.838-0.838,2.56-0.963,3.511-0.963c4.841,0,13.594,3.1,22.33,11.836
			c5.477,5.478,9.535,11.934,11.132,17.714c1.177,4.258,0.717,7.15-0.26,8.128C53.104,68.205,51.383,68.331,50.431,68.331z"/>
	</g>
	<path style="fill:#7D746D;" d="M92.401,37.912v126.74c-0.626,0-1.247-0.007-1.867-0.014c-1.301-0.02-2.596-0.055-3.884-0.116
		c-0.559-0.021-1.111-0.047-1.663-0.081c-0.116-0.007-0.238-0.014-0.354-0.021c-0.791-0.048-1.574-0.096-2.357-0.157
		c-0.491-0.034-0.981-0.075-1.472-0.122c-0.334-0.02-0.667-0.055-0.995-0.082c-0.818-0.082-1.629-0.164-2.439-0.252
		c-10.561-1.186-20.632-3.577-29.816-6.916c-0.184-0.068-0.375-0.137-0.559-0.211c-2.064-0.75-4.082-1.554-6.044-2.412
		c-0.572-0.246-1.131-0.498-1.696-0.75c-0.382-0.17-0.763-0.348-1.145-0.531c-7.931-3.693-14.97-8.149-20.761-13.109
		c-0.92-0.79-1.806-1.588-2.664-2.405c-2.214-2.105-4.218-4.299-5.976-6.555c-0.238-0.3-0.463-0.6-0.688-0.906
		c-0.177-0.238-0.354-0.477-0.524-0.722c-0.232-0.32-0.457-0.641-0.675-0.961c-0.45-0.654-0.872-1.315-1.274-1.977
		c-0.422-0.681-0.817-1.369-1.192-2.058c-2.63-4.885-4.149-9.995-4.333-15.194c-0.123-3.175,0.252-6.391,1.172-9.6
		c3.577-12.537,12.067-24.019,23.01-33.585c1.724-1.506,3.502-2.964,5.335-4.367c0.661-0.504,1.322-1.002,1.996-1.499
		c0.089-0.062,0.17-0.123,0.259-0.184c0.014-0.007,0.027-0.021,0.041-0.027c5.526-4.027,11.468-7.591,17.579-10.609
		c2.903-1.444,5.853-2.766,8.81-3.951C69.971,40.562,81.909,37.912,92.401,37.912z"/>
	<path style="fill:#E9E2D8;" d="M92.401,143.176c0,1.888-0.041,3.761-0.129,5.621c-0.15,3.481-0.45,6.909-0.886,10.262
		c-0.239,1.887-0.524,3.747-0.851,5.58c-1.301-0.02-2.596-0.055-3.884-0.116c-0.559-0.021-1.111-0.047-1.663-0.081
		c-0.116-0.007-0.238-0.014-0.354-0.021c-0.791-0.048-1.574-0.096-2.357-0.157c-0.491-0.034-0.981-0.075-1.472-0.122
		c-0.334-0.02-0.667-0.055-0.995-0.082c-0.818-0.082-1.629-0.164-2.439-0.252c-10.561-1.186-20.632-3.577-29.816-6.916
		c-0.184-0.068-0.375-0.137-0.559-0.211c-2.064-0.75-4.082-1.554-6.044-2.412c-0.572-0.246-1.131-0.498-1.696-0.75
		c-0.382-0.17-0.763-0.348-1.145-0.531c-7.931-3.693-14.97-8.149-20.761-13.109c-0.92-0.79-1.806-1.588-2.664-2.405
		c-2.214-2.105-4.218-4.299-5.976-6.555c-0.238-0.3-0.463-0.6-0.688-0.906c-0.177-0.238-0.354-0.477-0.524-0.722
		c-0.232-0.32-0.457-0.641-0.675-0.961c-0.45-0.654-0.872-1.315-1.274-1.977c-0.422-0.681-0.817-1.369-1.192-2.058
		c-2.63-4.885-4.149-9.995-4.333-15.194c-0.123-3.175,0.252-6.391,1.172-9.6c3.577-12.537,12.067-24.019,23.01-33.585
		c1.724-1.506,3.502-2.964,5.335-4.367c0.661-0.504,1.322-1.002,1.996-1.499c0.143-0.021,0.28-0.034,0.423-0.048
		c1.533-0.197,3.086-0.293,4.654-0.293c6.405,0,12.55,1.615,18.281,4.586c2.95,1.533,5.792,3.42,8.497,5.635
		c16.83,13.804,28.386,40.214,28.985,70.731C92.395,141.493,92.401,142.331,92.401,143.176z"/>
	<path style="fill:#1D1814;" d="M55.145,149.274c-2.664,2.664-5.396,5.144-8.149,7.406c-2.064-0.75-4.082-1.554-6.044-2.412
		c-0.572-0.246-1.131-0.498-1.696-0.75c-0.382-0.17-0.763-0.348-1.145-0.531c-7.931-3.693-14.97-8.149-20.761-13.109
		c-0.92-0.79-1.806-1.588-2.664-2.405c-2.214-2.105-4.218-4.299-5.976-6.555c-0.238-0.3-0.463-0.6-0.688-0.906
		c-0.177-0.238-0.354-0.477-0.524-0.722c-0.232-0.32-0.457-0.641-0.675-0.961c3.482-5.015,7.679-10.043,12.503-14.874
		c21.177-21.163,43.545-33.114,56.246-20.414C88.266,105.742,76.315,128.111,55.145,149.274z"/>
	<g>
		<circle style="fill:#FFFFFF;" cx="59.52" cy="109.735" r="13.399"/>
		<circle style="fill:#1D1814;" cx="59.52" cy="109.735" r="7.889"/>
		<path style="fill:#FFFFFF;" d="M63.867,107.561c0,2.754-2.526,2.174-2.174,2.174c-1.2,0-2.173-0.974-2.173-2.174
			c0-1.2,0.973-2.174,2.173-2.174C62.894,105.388,63.867,106.361,63.867,107.561z"/>
	</g>
	<g>
		
			<ellipse transform="matrix(-0.7071 -0.7071 0.7071 -0.7071 220.0761 189.1786)" style="fill:#E9E2D8;" cx="149.218" cy="49.011" rx="20.124" ry="35.5"/>
		<path style="fill:#1D1814;" d="M134.372,68.331c4.842,0,13.594-3.1,22.331-11.836c5.478-5.478,9.535-11.934,11.133-17.714
			c1.177-4.258,0.717-7.15-0.26-8.128c-0.838-0.838-2.56-0.964-3.511-0.964c-4.841,0-13.594,3.1-22.331,11.837
			c-5.478,5.477-9.535,11.934-11.133,17.714c-1.177,4.258-0.717,7.15,0.26,8.128C131.699,68.206,133.42,68.331,134.372,68.331z"/>
	</g>
	<path style="fill:#7D746D;" d="M184.78,109.101c-0.184,5.199-1.703,10.31-4.333,15.194c-0.375,0.688-0.77,1.377-1.192,2.058
		c-0.402,0.661-0.824,1.322-1.274,1.977c-0.068,0.096-0.129,0.19-0.198,0.286c-0.15,0.225-0.313,0.449-0.477,0.675
		c-0.17,0.245-0.347,0.483-0.524,0.722c-0.225,0.307-0.45,0.607-0.688,0.906c-1.758,2.256-3.761,4.449-5.976,6.555
		c-0.859,0.817-1.745,1.615-2.665,2.405c-5.791,4.96-12.83,9.416-20.761,13.109c-0.382,0.184-0.763,0.361-1.145,0.531
		c-0.566,0.252-1.124,0.504-1.696,0.75c-1.962,0.858-3.98,1.662-6.044,2.412c-0.184,0.074-0.374,0.143-0.559,0.211
		c-9.185,3.339-19.255,5.73-29.816,6.916c-0.811,0.088-1.622,0.17-2.439,0.252c-0.341,0.034-0.682,0.062-1.022,0.082
		c-0.477,0.047-0.961,0.088-1.445,0.122c-0.784,0.062-1.567,0.109-2.357,0.157c-0.116,0.007-0.238,0.014-0.354,0.021
		c-0.552,0.034-1.104,0.061-1.663,0.081c-1.288,0.061-2.582,0.096-3.883,0.116c-0.62,0.007-1.24,0.014-1.867,0.014V37.912
		c10.493,0,22.431,2.65,34.177,7.366c2.957,1.186,5.907,2.507,8.81,3.951c6.112,3.019,12.054,6.582,17.579,10.609
		c0.014,0.007,0.027,0.021,0.041,0.027c0.089,0.061,0.17,0.122,0.259,0.184c0.674,0.497,1.335,0.995,1.996,1.499
		c1.833,1.403,3.611,2.861,5.335,4.367c10.943,9.566,19.433,21.048,23.01,33.585C184.528,102.71,184.903,105.926,184.78,109.101z"/>
	<path style="fill:#E9E2D8;" d="M184.78,109.101c-0.184,5.199-1.703,10.31-4.333,15.194c-0.375,0.688-0.77,1.377-1.192,2.058
		c-0.402,0.661-0.824,1.322-1.274,1.977c-0.068,0.096-0.129,0.19-0.198,0.286c-0.15,0.225-0.313,0.449-0.477,0.675
		c-0.17,0.245-0.347,0.483-0.524,0.722c-0.225,0.307-0.45,0.607-0.688,0.906c-1.758,2.256-3.761,4.449-5.976,6.555
		c-0.859,0.817-1.745,1.615-2.665,2.405c-5.791,4.96-12.83,9.416-20.761,13.109c-0.382,0.184-0.763,0.361-1.145,0.531
		c-0.566,0.252-1.124,0.504-1.696,0.75c-1.962,0.858-3.98,1.662-6.044,2.412c-0.184,0.074-0.374,0.143-0.559,0.211
		c-9.185,3.339-19.255,5.73-29.816,6.916c-0.811,0.088-1.622,0.17-2.439,0.252c-0.341,0.034-0.682,0.062-1.022,0.082
		c-0.477,0.047-0.961,0.088-1.445,0.122c-0.784,0.062-1.567,0.109-2.357,0.157c-0.116,0.007-0.238,0.014-0.354,0.021
		c-0.552,0.034-1.104,0.061-1.663,0.081c-1.288,0.061-2.582,0.096-3.883,0.116c-0.327-1.833-0.613-3.693-0.852-5.58
		c-0.436-3.353-0.736-6.78-0.886-10.262c-0.088-1.86-0.129-3.733-0.129-5.621c0-0.845,0.007-1.683,0.027-2.515
		c0.886-44.935,25.517-80.952,55.763-80.952c1.71,0,3.407,0.116,5.076,0.341c0.674,0.497,1.335,0.995,1.996,1.499
		c1.833,1.403,3.611,2.861,5.335,4.367c10.943,9.566,19.433,21.048,23.01,33.585C184.528,102.71,184.903,105.926,184.78,109.101z"/>
	<path style="fill:#1D1814;" d="M129.658,149.274c2.665,2.664,5.396,5.145,8.149,7.406c2.064-0.749,4.081-1.553,6.044-2.412
		c0.573-0.245,1.131-0.497,1.697-0.749c0.381-0.171,0.763-0.348,1.144-0.531c7.931-3.693,14.97-8.149,20.761-13.109
		c0.92-0.791,1.806-1.588,2.664-2.405c2.214-2.105,4.218-4.3,5.976-6.555c0.667-0.852,1.294-1.717,1.887-2.59
		c-3.481-5.015-7.679-10.043-12.503-14.874c-21.177-21.163-43.545-33.113-56.247-20.413
		C96.538,105.742,108.489,128.111,129.658,149.274z"/>
	<g>
		<circle style="fill:#FFFFFF;" cx="125.283" cy="109.736" r="13.399"/>
		<circle style="fill:#1D1814;" cx="125.283" cy="109.736" r="7.889"/>
		<path style="fill:#FFFFFF;" d="M120.936,107.562c0,2.754,2.526,2.174,2.173,2.174c1.201,0,2.174-0.974,2.174-2.174
			c0-1.201-0.973-2.174-2.174-2.174C121.909,105.389,120.936,106.361,120.936,107.562z"/>
	</g>
	<path style="fill:#E9E2D8;" d="M103.971,135.526v28.188c-0.477,0.087-0.961,0.162-1.445,0.225c-0.784,0.113-1.567,0.2-2.357,0.288
		c-0.116,0.013-0.238,0.025-0.354,0.038c-0.552,0.063-1.104,0.112-1.663,0.15c-1.288,0.112-2.582,0.175-3.883,0.212
		c-0.62,0.013-1.24,0.025-1.867,0.025c-0.626,0-1.247-0.013-1.867-0.025c-1.301-0.037-2.596-0.1-3.884-0.212
		c-0.559-0.038-1.111-0.088-1.663-0.15c-0.116-0.013-0.238-0.025-0.354-0.038c-0.791-0.088-1.574-0.175-2.357-0.288
		c-0.491-0.063-0.981-0.138-1.472-0.225v-28.188H103.971z"/>
	<path style="fill:#1D1814;" d="M92.401,129.532L92.401,129.532c-8.067,0.001-14.602-0.958-14.602,5.147
		c0,6.105,6.534,11.051,14.602,11.051l0,0c8.067,0,14.602-4.947,14.602-11.052C107.003,128.573,100.469,129.532,92.401,129.532z"/>
	<path style="fill:#43423E;" d="M92.406,159.619c-3.655,0-7.064-1.965-8.898-5.128c-0.554-0.955-0.228-2.179,0.728-2.733
		c0.955-0.553,2.18-0.228,2.733,0.728c1.121,1.933,3.205,3.134,5.438,3.134c2.228,0,4.308-1.201,5.429-3.134
		c0.554-0.955,1.778-1.28,2.733-0.728c0.955,0.555,1.281,1.778,0.727,2.733C99.461,157.654,96.055,159.619,92.406,159.619z"/>
	<path style="opacity:0.5;fill:#BCBEC0;" d="M92.401,37.912v126.74c-0.626,0-1.247-0.007-1.867-0.014
		c-1.301-0.02-2.596-0.055-3.884-0.116c-0.559-0.021-1.111-0.047-1.663-0.081c-0.116-0.007-0.238-0.014-0.354-0.021
		c-0.791-0.048-1.574-0.096-2.357-0.157c-0.491-0.034-0.981-0.075-1.472-0.122c-0.334-0.02-0.667-0.055-0.995-0.082
		c-0.818-0.082-1.629-0.164-2.439-0.252c-10.561-1.186-20.632-3.577-29.816-6.916c-0.184-0.068-0.375-0.137-0.559-0.211
		c-2.064-0.75-4.082-1.554-6.044-2.412c-0.572-0.246-1.131-0.498-1.696-0.75c-0.382-0.17-0.763-0.348-1.145-0.531
		c-7.931-3.693-14.97-8.149-20.761-13.109c-0.92-0.79-1.806-1.588-2.664-2.405c-2.214-2.105-4.218-4.299-5.976-6.555
		c-0.238-0.3-0.463-0.6-0.688-0.906c-0.177-0.238-0.354-0.477-0.524-0.722c-0.232-0.32-0.457-0.641-0.675-0.961
		c-0.45-0.654-0.872-1.315-1.274-1.977c-0.422-0.681-0.817-1.369-1.192-2.058c-2.63-4.885-4.149-9.995-4.333-15.194
		c-0.123-3.175,0.252-6.391,1.172-9.6c3.577-12.537,12.067-24.019,23.01-33.585c-0.968-0.852-1.914-1.744-2.848-2.678
		C7.49,49.373,2.626,31.767,10.482,23.91c7.863-7.862,25.469-2.991,39.335,10.868c3.345,3.346,6.167,6.909,8.408,10.5
		C69.971,40.562,81.909,37.912,92.401,37.912z"/>
</g>
<g>
</g>
<g>
</g>
<g>
</g>
<g>
</g>
<g>
</g>
<g>
</g>
<g>
</g>
<g>
</g>
<g>
</g>
<g>
</g>
<g>
</g>
<g>
</g>
<g>
</g>
<g>
</g>
<g>
</g>
</svg>
