<?xml version="1.0" encoding="UTF-8" standalone="no"?>
<!-- Created with Inkscape (http://www.inkscape.org/) -->

<svg
   xmlns:dc="http://purl.org/dc/elements/1.1/"
   xmlns:cc="http://creativecommons.org/ns#"
   xmlns:rdf="http://www.w3.org/1999/02/22-rdf-syntax-ns#"
   xmlns:svg="http://www.w3.org/2000/svg"
   xmlns="http://www.w3.org/2000/svg"
   xmlns:sodipodi="http://sodipodi.sourceforge.net/DTD/sodipodi-0.dtd"
   xmlns:inkscape="http://www.inkscape.org/namespaces/inkscape"
   id="svg2"
   version="1.1"
   inkscape:version="0.48.5 r10040"
   width="600"
   height="474.20941"
   sodipodi:docname="elephant_baby_clipart.png">
  <title
     id="title3772">elephant gray and pink</title>
  <metadata
     id="metadata8">
    <rdf:RDF>
      <cc:Work
         rdf:about="">
        <dc:format>image/svg+xml</dc:format>
        <dc:type
           rdf:resource="http://purl.org/dc/dcmitype/StillImage" />
        <dc:title>elephant gray and pink</dc:title>
        <dc:date>12/04/2014</dc:date>
        <dc:creator>
          <cc:Agent>
            <dc:title>edited by Paul Sherman</dc:title>
          </cc:Agent>
        </dc:creator>
        <dc:rights>
          <cc:Agent>
            <dc:title>pd</dc:title>
          </cc:Agent>
        </dc:rights>
        <dc:publisher>
          <cc:Agent>
            <dc:title>wpclipart</dc:title>
          </cc:Agent>
        </dc:publisher>
        <cc:license
           rdf:resource="http://creativecommons.org/licenses/publicdomain/" />
      </cc:Work>
      <cc:License
         rdf:about="http://creativecommons.org/licenses/publicdomain/">
        <cc:permits
           rdf:resource="http://creativecommons.org/ns#Reproduction" />
        <cc:permits
           rdf:resource="http://creativecommons.org/ns#Distribution" />
        <cc:permits
           rdf:resource="http://creativecommons.org/ns#DerivativeWorks" />
      </cc:License>
    </rdf:RDF>
  </metadata>
  <defs
     id="defs6" />
  <sodipodi:namedview
     pagecolor="#ffffff"
     bordercolor="#666666"
     borderopacity="1"
     objecttolerance="10"
     gridtolerance="10"
     guidetolerance="10"
     inkscape:pageopacity="0"
     inkscape:pageshadow="2"
     inkscape:window-width="1146"
     inkscape:window-height="947"
     id="namedview4"
     showgrid="false"
     fit-margin-top="4"
     fit-margin-left="4"
     fit-margin-right="4"
     fit-margin-bottom="4"
     inkscape:zoom="1.0074671"
     inkscape:cx="293.05188"
     inkscape:cy="245.46506"
     inkscape:window-x="0"
     inkscape:window-y="0"
     inkscape:window-maximized="0"
     inkscape:current-layer="svg2" />
  <g
     id="g3765"
     transform="matrix(0.95207384,0,0,0.95207384,-89.301338,-17.918125)">
    <path
       sodipodi:nodetypes="ccccccccscccccccc"
       inkscape:connector-curvature="0"
       id="path2995"
       d="m 102.81868,229.21526 35.20949,1.05235 27.1149,-7.03693 41.89918,-5.63913 -15.49295,-39.43662 11.2676,-63.38028 122.53521,-21.126763 39.43662,7.042253 c 0,0 8.45071,53.52113 8.45071,66.19718 0,12.67606 2.8169,77.46479 2.8169,77.46479 l -8.45071,39.43662 -109.85915,8.45071 -56.33803,-32.39437 -39.43662,1.40845 -23.94366,-4.22535 -25.35211,-14.08451 z"
       style="fill:#ffffff;fill-opacity:1;stroke:none" />
    <g
       id="g2987">
      <path
         inkscape:connector-curvature="0"
         id="path2993"
         d="m 417.5,511.56781 c -15.73447,-3.62807 -33.27994,-11.87844 -37.04537,-17.41977 -4.53502,-6.67388 -4.93597,-11.60064 -3.58119,-44.00455 1.30101,-31.11783 0.83628,-41.65199 -2.48951,-56.42995 C 372.25926,384.27268 371.51705,383 368.13594,383 c -2.70402,0 -2.80108,0.18266 -3.02393,5.69115 -0.12664,3.13013 -0.45407,6.0533 -0.72762,6.49591 -0.27355,0.44262 0.0209,16.50736 0.65432,35.69943 1.12235,34.00578 1.10089,35.0095 -0.84243,39.4027 -2.29253,5.18263 -7.0932,8.45533 -16.69628,11.38214 -4.97209,1.51539 -9.42636,1.82423 -26,1.80278 -22.02491,-0.0285 -32.19199,-1.28008 -40.22374,-4.95155 -7.82644,-3.57761 -9.44542,-6.79548 -9.06759,-18.02256 0.20765,-6.16983 0.85138,-10.022 2.04711,-12.25 5.29976,-9.87504 5.01101,-7.5301 4.44321,-36.08299 -0.53325,-26.81548 -1.44953,-34.87845 -5.27115,-46.38426 -1.37621,-4.14338 -2.35445,-5.23517 -7.25789,-8.10037 l -5.66729,-3.31154 -6.21583,10.44922 c -14.95853,25.14623 -26.74617,37.20275 -65.74174,67.2413 -6.0252,4.64125 -13.31811,10.80114 -16.20646,13.68864 -4.36747,4.36618 -5.89018,5.27353 -9.04509,5.38978 -14.52694,0.53526 -22.45819,-2.94953 -31.60522,-13.88651 -5.71714,-6.83592 -5.76754,-9.099 -0.38988,-17.50563 5.17626,-8.09181 8.91588,-11.97578 22.66115,-23.53587 23.76856,-19.98992 29.36872,-26.46217 32.58877,-37.66371 3.58315,-12.46467 0.627,-25.06742 -12.12585,-51.6953 C 166.29538,289.88337 162,277.29806 162,270.45526 c 0,-3.17524 -0.0882,-3.23584 -5.73985,-3.94196 -21.58453,-2.69681 -42.65199,-13.89897 -53.31199,-28.34749 -7.905624,-10.71526 -6.604689,-13.63827 5.8035,-13.03963 17.44808,0.84179 35.71965,0.0464 45.60749,-1.98531 5.42253,-1.1142 10.09771,-2.2644 10.38929,-2.55597 0.29158,-0.29158 -0.28035,-5.56777 -1.27096,-11.72487 l -1.8011,-11.19472 -5.39812,-5.58266 C 148.76256,184.31003 144.13601,177.00891 134.99772,158.5 121.12933,130.41063 118.33238,118.56366 119.29773,92 c 0.86647,-23.842798 5.63021,-38.59308 16.46358,-50.977245 5.55528,-6.350518 14.35842,-12.28007 21.55183,-14.516714 2.85277,-0.887011 5.96825,-2.038738 6.92329,-2.559394 2.17312,-1.184716 18.02726,-1.252526 19.31357,-0.08261 0.5225,0.475221 3.19649,1.409145 5.94221,2.075386 7.77464,1.886497 19.01525,8.266314 30.71576,17.433301 5.88939,4.614149 11.83576,8.672415 13.21415,9.01837 1.68927,0.423981 5.85888,-0.641965 12.79202,-3.270241 26.48313,-10.039445 41.31951,-13.08713 67.28586,-13.821833 13.4011,-0.379177 21.15951,-0.09267 30.36624,1.121361 35.29235,4.653787 57.2821,13.973012 75.69882,32.081054 l 9.15488,9.001437 9.39003,-5.824568 c 30.10328,-18.672847 59.81384,-27.609092 91.96189,-27.659987 12.91071,-0.02044 18.57177,1.348083 25.72836,6.219659 11.78833,8.024451 21.53033,31.995463 24.47862,60.231724 1.42572,13.6544 0.25648,12.19652 14.04553,17.51274 12.36915,4.7688 21.3277,10.64029 31.27682,20.49904 9.88059,9.79085 15.33993,18.03863 20.53648,31.02582 3.71056,9.27339 4.50114,10.4927 6.80327,10.4927 0.93283,0 3.97723,0.67743 6.76532,1.50541 9.67475,2.87309 14.63127,9.99935 23.21591,33.37877 2.29907,6.2613 5.34028,13.67364 6.75825,16.47187 3.46468,6.8372 13.53425,16.70691 20.85353,20.43962 3.28133,1.67342 6.83465,3.69474 7.89627,4.49182 1.88613,1.41614 1.87765,1.47737 -0.37111,2.68087 -3.83305,2.05139 -8.57751,1.40262 -15.23151,-2.08282 -8.77196,-4.59483 -17.22667,-13.68264 -28.67994,-30.82755 C 666.49502,224.60243 663.56945,221.05158 660,218.8866 c -2.475,-1.50117 -4.725,-2.76404 -5,-2.80639 -0.275,-0.0423 -0.6423,4.75977 -0.81622,10.67139 -0.56878,19.3334 -5.03854,39.63335 -15.02732,68.2484 -12.06201,34.55427 -14.74092,67.39184 -9.13703,112 3.05749,24.33829 3.41472,31.36296 1.99805,39.29019 -1.12285,6.28309 -1.89186,7.80802 -7.30348,14.4828 -7.47493,9.2197 -14.81565,15.12242 -25.214,20.27474 -13.18118,6.5312 -21.40694,8.25014 -40,8.35878 -13.79056,0.0806 -17.17377,-0.22575 -24.5,-2.21834 -16.35267,-4.44759 -26.92533,-11.05817 -28.64514,-17.91042 -0.3545,-1.41246 -0.19591,-5.99027 0.35243,-10.17293 0.54834,-4.18265 0.92365,-7.70719 0.83402,-7.83231 -0.29752,-0.41534 -22.90748,1.76033 -23.39871,2.25156 -0.2653,0.2653 0.0544,6.5456 0.71052,13.95622 1.4423,16.29123 0.98977,17.83682 -7.79441,26.621 -6.24794,6.24794 -15.33715,11.24445 -29.05871,15.97412 -8.08917,2.78824 -21.94068,3.46602 -30.5,1.4924 z m -108,-241.48847 c 11.15829,-2.34868 35.18941,-9.70218 38.33379,-11.7301 6.25074,-4.03133 8.16351,-18.51728 3.70858,-28.086 l -2.4381,-5.23677 -11.80213,5.5474 c -23.75348,11.16492 -60.68312,20.16847 -90.66823,22.10516 -9.85057,0.63623 -9.86236,0.64017 -7.5,2.50255 7.66955,6.04633 22.71537,12.7596 34.36609,15.33376 8.98841,1.98593 25.4403,1.78668 36,-0.436 z M 165.88509,244.74543 c 2.4118,-8.38499 4.59612,-15.80449 4.85405,-16.48778 0.34744,-0.92041 -0.65154,-0.84702 -3.855,0.28323 -8.73817,3.083 -20.91098,4.45868 -39.76513,4.49395 l -18.61901,0.0348 6.04408,5.74661 c 9.07998,8.6331 21.25453,14.38714 42.45592,20.0659 1.925,0.5156 3.725,0.97599 4,1.02308 0.275,0.0471 2.47329,-6.77483 4.88509,-15.15981 z m 164.43065,-70.86762 c 7.12659,-3.66136 11.81118,-12.94022 11.87219,-23.51548 0.0419,-7.25643 -1.37009,-12.19789 -5.24736,-18.36427 -4.15012,-6.60034 -7.73753,-8.3925 -15.12615,-7.55657 -8.8801,1.00466 -10.47998,2.05462 -12.89495,8.46255 -2.64208,7.01054 -3.75201,23.0433 -1.96924,28.44516 1.46505,4.43915 5.34474,9.24956 9.50715,11.78788 3.41352,2.08163 10.51009,2.46094 13.85836,0.74073 z m -8.42769,-4.37745 c -3.73453,-2.02968 -5.19356,-6.36153 -4.70848,-13.97949 0.46432,-7.29203 2.74795,-11.38826 7.24065,-12.98785 5.79071,-2.06174 12.57978,5.25081 12.57978,13.54976 0,11.82952 -6.84746,17.90924 -15.11195,13.41758 z M 327.83637,154 l 0.0357,-3.5 -1.56975,3.14923 c -1.06619,2.139 -1.32041,4.06371 -0.79247,6 l 0.77727,2.85077 0.75675,-2.5 c 0.41621,-1.375 0.77283,-4.075 0.79248,-6 z M 214.5595,167.72278 c 0.32591,-0.97748 -0.41979,-3.86846 -1.65711,-6.42442 -2.105,-4.34834 -2.17332,-5.10221 -1.06243,-11.72278 C 213.07179,142.23433 215.27737,139 219.05177,139 c 2.70652,0 3.1037,-1.38366 1.49937,-5.22337 -2.00274,-4.79323 -3.89327,-6.19908 -6.47687,-4.81638 -3.88178,2.07747 -4.89137,6.03299 -5.97844,23.42323 -0.93891,15.02 -0.87619,17.02209 0.604,19.28115 l 1.65169,2.52081 1.80772,-2.34272 c 0.99424,-1.2885 2.07436,-3.14247 2.40026,-4.11994 z M 221.44478,152 l 0.67431,-3.5 -2.07706,3.12257 c -1.24325,1.86904 -1.8095,3.81982 -1.41055,4.85945 0.83739,2.18222 1.83582,0.59157 2.8133,-4.48202 z"
         style="fill:#bdbec0" />
      <path
         inkscape:connector-curvature="0"
         id="path2991"
         d="m 420.34157,511.57679 c -8.89309,-1.68363 -15.69564,-3.90609 -25.29284,-8.26342 -9.84814,-4.47125 -13.88515,-7.68934 -16.19406,-12.909 -1.79229,-4.05177 -1.89093,-6.80993 -1.63116,-45.60847 0.26775,-39.99044 0.20554,-41.57425 -1.96787,-50.1011 -2.9297,-11.49398 -3.71845,-12.89292 -7.05046,-12.50473 -2.288,0.26656 -2.77828,0.93969 -3.5033,4.80993 -0.46364,2.475 -0.50378,20.025 -0.0892,39 0.88766,40.62665 0.87498,41.15628 -1.07514,44.9274 -5.04994,9.76552 -25.62271,14.27576 -54.90697,12.03746 -27.61529,-2.11073 -35.38973,-6.01547 -36.40726,-18.28564 -0.59406,-7.16351 1.12933,-14.74279 4.51788,-19.86909 L 279.5,440.6365 279.4522,416.06825 c -0.049,-25.18465 -0.9992,-34.27553 -5.13881,-49.16489 -1.58987,-5.71845 -1.96611,-6.19011 -7.54691,-9.46092 -3.23049,-1.89334 -6.18701,-3.4304 -6.57005,-3.41569 -0.38303,0.0147 -1.99353,2.60221 -3.57888,5.75 -9.77327,19.40523 -28.66778,41.15029 -50.11754,57.67859 -20.91609,16.11707 -27.34079,21.32352 -33.34528,27.02237 l -6.34528,6.02229 -8.15472,-0.0186 c -11.29685,-0.0257 -17.49006,-3.07515 -25.76013,-12.68399 -7.02593,-8.1633 -7.05451,-8.76698 -0.86614,-18.29746 4.64292,-7.15039 12.94919,-15.36228 30.31359,-29.96913 C 182.79081,372.32945 188,364.12556 188,349.12245 188,337.58424 185.04251,327.81351 175.56653,308.04574 166.27853,288.67012 163,279.25035 163,271.93998 c 0,-4.82988 -0.0151,-4.85177 -3.75,-5.45208 -29.14862,-4.68495 -48.57871,-15.5417 -58.6885,-32.79274 -2.637343,-4.50029 -2.701853,-4.88259 -1.119032,-6.63159 1.555432,-1.71874 3.029052,-1.81611 19.926512,-1.31665 18.79077,0.55541 29.65283,-0.35714 40.88102,-3.43453 3.1625,-0.86677 5.74702,-1.62914 5.74337,-1.69417 -0.004,-0.065 -0.88775,-5.23587 -1.96468,-11.49077 l -1.95804,-11.37256 -5.3381,-5.62744 c -7.05112,-7.43333 -10.2183,-12.19848 -18.04063,-27.14286 -13.62504,-26.03033 -18.04255,-39.69876 -19.22488,-59.48459 -1.15155,-19.270725 2.72611,-41.657212 9.34467,-53.948522 3.9386,-7.314368 14.18309,-17.737063 21.01063,-21.376104 12.40881,-6.613828 24.4192,-8.042619 37.33177,-4.441098 12.12736,3.382513 19.47935,7.580031 37.17849,21.226567 C 229.71961,51.114377 233.05861,53 235.02654,53 c 1.57373,0 6.82406,-1.600981 11.66739,-3.557735 12.85395,-5.193117 26.3179,-8.986488 40.92481,-11.530273 17.80988,-3.10158 44.442,-3.14452 62.38126,-0.100582 33.4748,5.680012 51.34738,13.743032 69.61248,31.404909 l 9.11247,8.811529 10.88753,-6.68341 c 26.07085,-16.00384 49.38745,-23.781127 79.15926,-26.403686 7.29946,-0.642999 16.13727,-0.862217 19.63959,-0.487151 12.40237,1.328182 23.16701,8.851233 28.91276,20.206186 6.38712,12.62243 10.8822,29.76133 12.65301,48.243523 0.51371,5.36169 1.46441,9.93148 2.21192,10.63218 0.72104,0.67588 3.78598,2.00918 6.81098,2.96289 6.93545,2.18659 19.44152,8.33328 25.66045,12.61202 13.649,9.39075 25.44472,25.17134 32.00923,42.82268 2.57895,6.93457 4.40248,9.06337 7.77145,9.0725 4.27529,0.0116 9.32884,2.10567 13.31454,5.51728 4.70006,4.02307 8.52209,11.4218 14.44778,27.96815 2.1649,6.04505 5.36726,13.68293 7.11637,16.97305 4.3747,8.22897 12.68252,16.32848 21.39269,20.8563 8.25976,4.29369 9.10497,5.17177 6.38124,6.62947 -3.35719,1.79671 -6.63367,1.18115 -14.06759,-2.64288 -9.62457,-4.95092 -15.29327,-10.99004 -27.93301,-29.75831 C 665.76627,222.69953 663.87243,220.46161 659.25,217.8271 l -5.25,-2.99219 0,7.53133 c 0,18.68146 -4.53263,40.61511 -14.49326,70.13376 -9.7881,29.00734 -12.86224,46.9664 -12.83811,75 0.0142,16.48774 1.64868,34.86543 5.00475,56.27174 1.39382,8.89031 1.43509,11.4948 0.30689,19.36592 -1.18366,8.25802 -1.70777,9.63197 -5.70028,14.94317 -15.62584,20.78697 -38.16219,31.18556 -67.77999,31.27466 -23.90078,0.0719 -48.50093,-9.45594 -51.3852,-19.9019 -0.61768,-2.23705 -0.5849,-5.92081 0.0933,-10.49058 0.57493,-3.87358 0.79681,-7.29139 0.49307,-7.59512 -0.30373,-0.30373 -6.03567,-0.22497 -12.73764,0.17504 l -12.1854,0.72729 0.58753,4.61489 c 0.32314,2.53819 0.88652,9.40907 1.25196,15.26862 0.60923,9.76838 0.48814,10.939 -1.45714,14.08652 -3.97801,6.43656 -12.80376,13.72414 -21.46939,17.72767 -17.01996,7.86325 -28.67627,10.00816 -41.34957,7.60887 z m 43.88973,-17.77791 c 10.25604,-5.30928 11.77446,-7.75359 11.75134,-18.91691 -0.0253,-12.22005 -2.20613,-20.83451 -8.45088,-33.38197 -7.97311,-16.02021 -9.88484,-25.02103 -9.2392,-43.5 0.34903,-9.98959 1.3103,-18.38828 3.09027,-27 3.66122,-17.71344 5.38135,-43.39253 3.48324,-52 -1.63346,-7.40734 -1.38885,-11 0.74894,-11 2.92771,0 6.16777,4.63682 7.40913,10.60316 1.6986,8.16397 0.75073,38.2303 -1.55276,49.25289 -2.02509,9.69043 -2.03119,9.68021 6.41517,10.73551 8.1433,1.01744 18.33695,-0.12085 31.11345,-3.47433 15.72157,-4.12649 14.95282,-2.91909 16.94742,-26.61723 1.13187,-13.44793 3.58419,-26.8538 7.0271,-38.41446 C 535.023,303.20716 539.04299,298 542.30472,298 c 2.05714,0 2.1529,1.96901 0.31023,6.37913 -4.15987,9.95598 -7.52386,32.2311 -8.62639,57.12087 -1.0758,24.28625 -2.28944,32.52714 -8.47785,57.56638 C 523.02982,429.10443 521,437.90363 521,438.62015 c 0,0.71652 1.9125,1.77717 4.25,2.357 6.91953,1.71642 10.60686,4.0865 13.51183,8.6849 1.50599,2.38391 3.22223,4.33518 3.81386,4.33616 0.59162,9.9e-4 2.08209,-1.06948 3.31215,-2.37882 3.14666,-3.34946 14.96862,-8.57818 21.01375,-9.29414 10.5342,-1.24762 18.85166,5.02488 25.64453,19.33948 1.89963,4.0031 3.45388,7.78932 3.45388,8.41381 0,4.65148 25.28807,-16.44563 27.87808,-23.25788 0.61645,-1.62138 -0.21735,-11.30045 -2.61456,-30.35061 -2.96828,-23.58834 -3.53876,-31.33818 -3.64159,-49.47005 -0.17484,-30.82982 1.98743,-43.51847 13.37626,-78.49443 14.01421,-43.03876 16.94074,-67.67362 10.98929,-92.50557 -4.28588,-17.8825 -16.74374,-38.20883 -29.76565,-48.56585 -5.60005,-4.45402 -23.15831,-13.72422 -28.33139,-14.95806 -2.58559,-0.61669 -2.625,-0.53801 -4.2904,8.56492 -5.43085,29.68449 -17.19906,51.81435 -39.06399,73.45899 -22.44302,22.21689 -41.79706,33.42128 -69.49197,40.2301 -14.18053,3.4863 -37.25281,3.70995 -49.18761,0.47682 -9.35306,-2.53375 -17.45319,-6.53681 -25.36312,-12.53439 -7.06499,-5.35691 -10.75724,-9.82297 -14.02869,-16.96875 -2.4807,-5.41857 -4.40983,-16.71015 -2.85234,-16.69534 0.48822,0.005 2.46268,3.0282 4.38768,6.71904 4.25064,8.14982 15.31018,19.6941 23,24.0081 13.18444,7.3965 29.58393,10.26379 47.65844,8.33263 30.055,-3.2112 53.39626,-14.63035 77.58493,-37.95657 25.98664,-25.06008 37.68901,-49.62637 39.35276,-82.61164 1.27884,-25.35414 -7.49879,-57.61449 -18.61016,-68.397703 -6.33703,-6.149885 -12.17291,-7.537892 -28.57575,-6.796467 -30.14604,1.362633 -54.28808,9.406014 -87.09677,29.017962 -8.9026,5.32168 -21.48166,12.427715 -27.95346,15.791189 -11.00938,5.721699 -12.08688,6.077509 -16.73688,5.526789 -5.63471,-0.66735 -7.95917,-2.18591 -5.61475,-3.668098 0.8204,-0.518676 2.7623,-0.949937 4.31532,-0.958359 1.68248,-0.0091 8.14895,-3.105687 16,-7.661839 7.24698,-4.205589 13.37559,-7.817357 13.61914,-8.026151 C 421.87987,81.52399 409.152,69.677014 402.12837,64.815026 382.98537,51.563605 351.92798,43.532161 320,43.576615 c -32.04335,0.04462 -66.10172,8.695037 -85.80427,21.793266 -8.16229,5.426279 -18.33803,15.982695 -23.03622,23.898016 -8.49477,14.311633 -15.54241,35.067763 -19.74234,58.143463 -2.82325,15.51183 -5.40869,22.34692 -10.67019,28.20865 -8.87664,9.88928 -11.4614,22.63918 -7.62866,37.62999 0.52732,2.0625 1.3713,3.75 1.87551,3.75 1.83412,0 11.79095,-10.74841 19.45342,-21 4.31648,-5.775 8.97754,-11.72358 10.35789,-13.21906 l 2.50975,-2.71905 -2.73623,-3.94838 c -2.48728,-3.58915 -2.8349,-5.23603 -3.82084,-18.1014 -1.65195,-21.55603 1.27831,-32.04013 9.97012,-35.6718 7.27481,-3.03961 12.16332,-0.18809 16.71246,9.74854 5.42686,11.85382 4.32815,22.16378 -3.99905,37.52595 l -4.3987,8.1148 6.25809,0.50234 c 7.07633,0.56802 13.49709,3.42429 16.61874,7.39282 1.15969,1.47431 1.93062,2.85847 1.71318,3.07592 -0.21745,0.21744 -3.6772,-0.75126 -7.68834,-2.15266 -15.12533,-5.28448 -20.38998,-3.16262 -33.34559,13.43954 C 197.86943,206.04799 194,211.1875 194,211.4087 c 0,0.2212 3.50989,0.16161 7.79976,-0.13243 9.61789,-0.65922 17.64381,1.41827 22.72937,5.88345 1.94592,1.70854 3.34179,3.30269 3.10193,3.54255 -0.23986,0.23986 -5.54247,-0.26661 -11.78358,-1.12548 -8.77158,-1.20711 -12.79654,-1.32648 -17.73093,-0.52586 -10.5837,1.71723 -13.91437,4.27832 -19.05178,14.64972 -2.78492,5.6222 -7.54268,22.15477 -6.6365,23.06095 0.20507,0.20508 2.78011,-0.89173 5.7223,-2.43735 4.89325,-2.57057 6.26292,-2.81082 16.06157,-2.81723 8.95681,-0.006 11.00511,0.28567 12.5,1.77914 2.52027,2.51789 0.79412,3.3215 -8.54966,3.98033 C 183.54601,258.2971 172,264.89571 172,272.2185 c 0,5.64025 2.7948,13.54917 9.75392,27.60232 5.8381,11.78937 6.835,13.24876 8.67127,12.69407 4.97157,-1.50178 14.09284,-1.6765 15.90851,-0.30472 1.66396,1.25716 1.08277,1.6468 -6.27873,4.20942 -6.34535,2.20888 -8.005,3.17868 -7.61925,4.45221 0.27125,0.89551 1.45332,5.9032 2.62682,11.1282 1.8322,8.15784 2.04324,11.31473 1.49379,22.34495 l -0.63986,12.84496 4.29177,-0.84261 c 2.36047,-0.46344 6.38591,-0.76514 8.94543,-0.67045 4.98314,0.18435 11.6405,2.9774 10.21123,4.28405 -0.47569,0.43488 -6.4899,1.76804 -13.3649,2.96257 -6.875,1.19452 -13.34836,2.42506 -14.38525,2.73451 -2.3648,0.70577 -26.50701,23.4829 -26.33085,24.84202 0.0713,0.55 1.57764,1.4978 3.34743,2.10623 C 173.8195,404.38984 180,409.8142 180,412.58403 180,413.91281 179.8049,415 179.56645,415 c -0.23846,0 -2.60096,-1.32552 -5.25,-2.94561 -2.64905,-1.62008 -7.57118,-3.49818 -10.93807,-4.17356 -5.80105,-1.16364 -6.27237,-1.10995 -9,1.02533 C 151.39885,411.23863 135,427.00714 135,427.53967 c 0,0.16563 3.0375,0.59674 6.75,0.95803 9.03586,0.87933 11.99692,1.89281 19.2761,6.59756 5.2504,3.3935 6.4145,3.79509 7.81531,2.69609 0.90528,-0.71024 4.81973,-3.99135 8.69876,-7.29135 3.87903,-3.3 11.96242,-9.825 17.96309,-14.5 21.78126,-16.96935 45.52474,-43.44555 52.91038,-59 l 3.08636,-6.5 -0.10692,-21 c -0.10655,-20.9263 -3.00422,-51.55856 -5.43924,-57.5 -0.56352,-1.375 -4.86813,-5.39812 -9.56579,-8.94028 -4.69765,-3.54215 -9.18174,-7.35478 -9.96462,-8.4725 -1.94483,-2.77664 -1.78892,-6.32543 0.32657,-7.43338 0.9625,-0.5041 7.825,-1.43046 15.25,-2.05858 35.81634,-3.02991 73.02076,-12.41128 96.23631,-24.26671 6.46929,-3.30365 10.40268,-4.76052 11.72221,-4.34171 5.5251,1.75359 12.03175,13.75047 12.33847,22.74952 0.49925,14.64753 -8.79684,24.43198 -32.09217,33.7781 -14.2502,5.7172 -25.23724,7.93769 -39.4056,7.9639 -12.29699,0.0227 -17.93393,-0.79138 -29.07007,-4.19846 -3.72396,-1.13935 -6.95162,-1.89076 -7.17258,-1.66981 -0.65668,0.65669 3.5488,24.18077 4.79543,26.82406 1.92578,4.08331 16.34485,9.80024 27.99406,11.09921 20.80051,2.31939 41.25389,-2.28507 60.89121,-13.70785 4.2555,-2.47536 8.24385,-4.3318 8.863,-4.12542 2.48965,0.82988 -11.3729,11.88794 -20.41963,16.2886 -12.97359,6.31083 -22.58975,8.66117 -37.85471,9.25228 -14.38695,0.55711 -23.76744,-0.69462 -31.48226,-4.201 l -5.15632,-2.34355 -0.40416,14.15179 c -0.49676,17.39466 0.15739,19.57583 6.89315,22.98444 2.65301,1.34255 6.62366,2.96849 8.82366,3.6132 4.08466,1.19702 25.81849,5.05984 26.22345,4.66078 0.12289,-0.12111 -2.35211,-2.37521 -5.5,-5.00912 -10.28441,-8.60516 -20.16327,-22.98481 -18.59619,-27.06855 0.9743,-2.53899 2.51195,-1.35298 7.19336,5.54836 5.58167,8.22851 11.1551,14.01587 18.67938,19.39636 10.83516,7.74805 19.72365,11.46914 48.77861,20.42073 18.48959,5.69648 17.58058,7.17813 8.13109,-13.25323 -6.72301,-14.53626 -7.29614,-16.66061 -5.0073,-18.56018 1.98196,-1.64488 4.20433,1.775 13.09461,20.15066 14.1327,29.21142 16.10311,39.73923 15.09309,80.6418 -0.64386,26.07422 -0.59084,27.33812 1.11698,26.62892 3.46772,-1.44004 11.09852,-1.72164 14.67426,-0.54154 1.98797,0.65609 5.63327,3.21166 8.10066,5.67906 l 4.48617,4.48616 3.41321,-2.60338 c 10.771,-8.21544 17.5879,-4.14343 27.13442,16.20849 l 4.33008,9.23117 3.82706,-1.58058 c 2.10488,-0.86932 7.30614,-3.38162 11.55836,-5.58288 z M 445.02424,230.46046 c -6.33148,-1.77491 -12.18582,-5.0005 -20.21968,-11.14054 -10.96918,-8.38341 -14.49613,-21.67113 -11.89654,-44.81992 2.20544,-19.63892 7.04403,-34.1837 16.69465,-50.18407 6.19673,-10.27394 8.59992,-16.00744 10.40159,-24.81593 2.55996,-12.515885 8.38813,-18.822942 23.53037,-25.463809 24.52948,-10.757794 49.00854,-12.646242 65.27748,-5.03586 16.80137,7.859449 29.22592,27.862622 29.16808,46.959769 -0.025,8.24073 -1.71756,20.17727 -3.05009,21.5098 -1.62167,1.62167 -2.89773,-1.40653 -2.91479,-6.917 L 552,125.60579 l -3.91682,8.0995 c -8.01957,16.58343 -20.71406,37.06695 -30.55,49.29471 -2.87571,3.575 -13.0596,14.40782 -22.63087,24.07293 -14.43264,14.57414 -18.52114,18.12225 -23.95867,20.79195 -8.09589,3.97489 -17.60295,4.92693 -25.9194,2.59558 z M 313.53748,180.94363 c -2.17939,-1.08717 -5.24197,-3.20245 -6.80573,-4.70063 -3.84027,-3.67921 -8.46118,-13.6028 -9.24135,-19.84616 -0.97731,-7.82105 1.07282,-19.95644 4.36704,-25.84985 2.52031,-4.50889 3.80287,-5.55343 12.02936,-9.79699 5.45191,-2.81232 10.51466,-4.74104 12.41073,-4.72804 10.06288,0.069 19.70682,10.5697 23.38086,25.45796 1.43289,5.80647 1.50472,7.82628 0.48895,13.74977 -2.1228,12.37927 -7.92328,21.5645 -16.32459,25.85054 -5.10791,2.60586 -14.94023,2.53971 -20.30527,-0.1366 z m 19.88019,-8.31303 c 1.88673,-1.43909 4.69612,-5.20719 6.24307,-8.37356 2.40605,-4.92479 2.81457,-6.98581 2.82595,-14.25704 0.0114,-7.29415 -0.3825,-9.30602 -2.77678,-14.1816 -1.53454,-3.12489 -4.42351,-7.11578 -6.41992,-8.86865 -3.55371,-3.1202 -3.79546,-3.17746 -11.52562,-2.72997 -9.06481,0.52476 -11.1982,1.98983 -14.2416,9.78022 -2.19983,5.63104 -3.12879,20.11906 -1.64119,25.59588 3.70177,13.62864 17.92822,20.36299 27.53609,13.03472 z m -10.6551,-3.15557 c -4.52703,-2.52318 -6.07477,-6.7354 -5.26235,-14.32165 0.60416,-5.64163 1.17248,-7.02608 4.07616,-9.92976 2.62296,-2.62296 3.88052,-3.22104 5.64886,-2.68652 3.68658,1.11434 7.7286,5.57775 8.86162,9.78546 1.22416,4.54619 -0.26066,12.4691 -2.94082,15.69203 -2.22158,2.67148 -7.00384,3.34411 -10.38347,1.46044 z M 328,158.58179 c 0,-2.43002 0.27314,-5.13002 0.60699,-6 1.24424,-3.24244 -1.76338,-1.45174 -3.15476,1.8783 -1.13806,2.72375 -1.19944,4.00061 -0.28846,6 1.73333,3.80424 2.83623,3.07384 2.83623,-1.8783 z m 25.37132,311.38877 c 1.402,-1.66619 2.82319,-4.49047 3.15819,-6.27619 0.33501,-1.78571 0.23082,-13.35996 -0.23152,-25.72056 -0.79464,-21.24426 -0.36768,-39.62166 1.20749,-51.97381 l 0.70137,-5.5 -20.35342,-6.67987 C 319.87724,367.92046 316.27362,367.06244 307,366.47389 c -5.775,-0.3665 -14.1,-1.28977 -18.5,-2.0517 -4.4,-0.76194 -8.31326,-1.39363 -8.69614,-1.40376 -0.38288,-0.0101 0.19557,2.56907 1.28545,5.73157 3.92645,11.39349 5.00758,21.49443 5.07109,47.37921 l 0.0604,24.62921 4.49513,0.61613 c 5.93969,0.81412 11.81396,4.22153 15.18849,8.81017 l 2.73772,3.72273 3.73453,-5.00224 c 4.17521,-5.59253 8.87179,-8.90075 12.62329,-8.8917 4.19585,0.0101 12.28574,4.43499 16.34948,8.94257 5.31165,5.89177 7.60217,11.38463 7.62856,18.29392 0.0121,3.1625 0.43196,5.75 0.93307,5.75 0.5011,0 2.0582,-1.36325 3.46021,-3.02944 z M 508.46715,439.75 c 2.14002,-1.86726 3.32315,-5.23828 6.95523,-19.81703 4.8871,-19.61632 9.09509,-40.74884 8.27697,-41.56695 -0.2948,-0.2948 -5.86025,1.34488 -12.36767,3.64372 -14.06248,4.96779 -26.44166,6.22099 -36.99268,3.74495 l -6.161,-1.44583 -0.65735,11.09557 c -0.74189,12.52249 0.41612,22.67881 3.53682,31.01962 1.14742,3.06677 2.30277,5.57595 2.56743,5.57595 0.26467,0 2.13679,-1.125 4.16029,-2.5 4.28459,-2.91145 10.70187,-3.33373 15.21278,-1.00105 3.48793,1.80368 7.58939,6.97153 8.53258,10.75105 0.84888,3.40163 3.40032,3.58555 6.9366,0.5 z M 311,270.47728 c 3.575,-0.84247 13.25,-3.58367 21.5,-6.09156 16.67427,-5.06875 18.25502,-6.1743 21.12209,-14.77247 2.0017,-6.00301 1.39891,-13.6916 -1.52238,-19.4178 -1.13912,-2.23286 -2.47495,-4.30933 -2.96852,-4.61437 -0.49356,-0.30504 -6.23749,1.86328 -12.76429,4.81849 -25.09226,11.3613 -57.29371,19.14878 -91.6169,22.15632 -4.2625,0.3735 -7.74606,0.96372 -7.74125,1.3116 0.0274,1.98458 18.97428,12.08472 28.35145,15.11352 12.83709,4.14634 31.76153,4.76677 45.6398,1.49627 z M 164.03174,252.75 c 1.16403,-3.9875 3.38593,-11.4125 4.93756,-16.5 1.55162,-5.0875 2.52047,-9.25 2.15298,-9.25 -0.36748,0 -5.15783,1.1973 -10.64521,2.66067 -9.24162,2.46455 -11.54348,2.66726 -31.22707,2.75 -11.6875,0.0491 -21.25,0.36525 -21.25,0.70249 0,0.33724 2.20792,2.67841 4.90648,5.2026 9.51229,8.89762 20.42552,14.53877 37.09352,19.17394 12.22828,3.40055 11.59276,3.61521 14.03174,-4.7397 z m 502.63917,-44.5 c -3.40518,-5.41486 -12.3296,-10.92465 -14.3777,-8.87654 -0.51162,0.51162 1.34714,8.56751 1.99693,8.6547 0.11542,0.0155 2.68486,0.88393 5.70986,1.92987 8.6689,2.99741 9.49667,2.78547 6.67091,-1.70803 z M 167.38567,178.26736 c 4.41585,-5.56643 4.48692,-5.76518 2.45107,-6.85473 -1.15315,-0.61715 -5.44055,-4.44996 -9.52755,-8.51736 -6.78147,-6.74894 -8.16958,-8.88103 -15.88272,-24.39527 -5.24597,-10.55178 -9.20561,-20.0003 -10.43913,-24.90996 -5.05835,-20.133141 -0.075,-45.159817 10.91343,-54.807779 1.92938,-1.694019 6.0035,-4.240793 9.0536,-5.659497 4.60734,-2.143032 6.98378,-2.576265 14.04563,-2.560565 13.42124,0.02984 19.63279,4.07745 29.47726,19.208159 7.29444,11.211369 7.02766,11.221528 18.9087,-0.720043 L 226.5,58.88474 l -4,-3.522484 C 207.7084,42.33646 196.37955,35.968104 183.22823,33.286167 c -18.00168,-3.671066 -36.7325,4.423493 -45.92724,19.847542 -7.04921,11.824954 -11.18473,35.249102 -9.342,52.914351 1.88975,18.11606 4.38113,27.24009 11.59238,42.45413 5.14137,10.8471 21.07967,35.49781 22.95164,35.49781 0.18423,0 2.38142,-2.57969 4.88266,-5.73264 z m 46.10841,-7.66705 2.57839,-4.39969 -2.17517,-4.17314 c -1.85657,-3.56192 -2.08865,-5.20502 -1.58453,-11.2182 0.65898,-7.86036 2.12173,-10.24618 6.86335,-11.1945 2.84625,-0.56925 3.02652,-0.85158 2.43433,-3.81251 -1.40438,-7.02193 -5.51769,-9.75217 -9.17793,-6.09193 -3.30979,3.30979 -4.25788,7.86 -4.97561,23.87956 -0.64404,14.37505 -0.5353,16.36082 1.02638,18.74425 0.9607,1.46622 1.90101,2.66585 2.08957,2.66585 0.18856,0 1.50311,-1.97986 2.92122,-4.39969 z m 9.02525,-20.21074 0.62748,-2.88957 -2.5734,2.80576 c -2.4901,2.71493 -3.35992,6.5744 -1.82715,8.10717 0.80467,0.80467 2.75801,-3.34908 3.77307,-8.02336 z"
         style="fill:#f86b82" />
      <path
         inkscape:connector-curvature="0"
         id="path2989"
         d="m 423.5,512.02553 c -12.80634,-2.0298 -32.13409,-9.22085 -39.13447,-14.56029 -7.02063,-5.35491 -6.86545,-4.19176 -6.86623,-51.46524 -7.4e-4,-44.52943 -0.42492,-49.70621 -4.96284,-60.56698 -1.26498,-3.02753 -1.9097,-3.52176 -4.24165,-3.2516 -2.39361,0.2773 -2.85858,0.90167 -3.58846,4.81858 -0.46119,2.475 -0.54595,21.66167 -0.18835,42.63705 0.71404,41.88328 0.70431,41.96873 -5.25291,46.14261 -8.81379,6.17532 -27.26844,8.84458 -49.60795,7.17524 -16.63479,-1.24305 -23.00477,-2.40484 -28.59799,-5.21584 -7.12393,-3.58029 -8.56031,-6.36219 -8.55258,-16.56418 0.006,-8.09359 0.24066,-9.07693 3.5,-14.67488 l 3.49343,-6 -0.024,-24.5 c -0.0249,-25.37071 -0.78024,-32.99286 -4.68786,-47.30247 l -2.13067,-7.80247 -5.88231,-3.44753 C 263.53989,355.55139 260.5607,354 260.15474,354 c -0.40596,0 -2.00122,2.57543 -3.54502,5.72319 -6.53655,13.32778 -19.99821,30.75669 -33.90546,43.89768 -4.58621,4.33352 -16.64529,14.25804 -26.79795,22.05448 -10.15265,7.79644 -20.81861,16.57144 -23.70213,19.5 l -5.24275,5.32465 -8.23071,-0.053 C 147.31791,450.3735 141.11607,447.34983 132.97354,437.88917 129.68809,434.07189 127,430.46069 127,429.8643 c 0,-0.59639 1.4625,-3.84696 3.25,-7.22348 4.16602,-7.86946 12.74818,-16.79935 30.21345,-31.43758 C 182.84556,372.44403 188,364.46452 188,348.57435 188,337.14719 184.91161,327.08054 175.55069,307.99565 166.937,290.43419 163,279.14081 163,271.99369 c 0,-4.89292 -0.008,-4.9043 -3.75,-5.50031 -12.1263,-1.93131 -22.73685,-5.1136 -32.0755,-9.62001 -8.41001,-4.05829 -11.66871,-6.31744 -17.56614,-12.178 -3.98235,-3.95745 -8.21752,-9.21015 -9.41149,-11.67266 -3.533564,-7.28781 -3.37513,-7.33546 25.00857,-7.52088 20.92019,-0.13667 25.3763,-0.44249 32.08282,-2.20186 4.28354,-1.12374 7.98538,-2.24028 8.22631,-2.4812 0.56473,-0.56474 -3.18215,-22.47189 -4.09652,-23.95136 -0.38093,-0.61636 -2.43706,-2.69667 -4.56919,-4.62292 -5.75839,-5.20236 -12.91684,-16.51723 -21.27972,-33.63537 C 123.42773,133.7566 120.82385,125.13204 119.53475,105.5 118.30534,86.777195 122.23904,63.846675 128.79461,51.521953 132.89253,43.817712 144.29099,32.883475 152,29.261647 c 12.37854,-5.815653 21.20271,-6.85242 33.47131,-3.932604 10.60156,2.523074 19.75069,7.390247 33.85774,18.011718 14.39227,10.836214 15.27243,11.098253 24.45108,7.279507 C 258.67054,44.425162 277.8312,39.184616 294,36.884859 c 12.26163,-1.744025 40.33903,-1.48486 53.01332,0.489333 34.58219,5.386641 54.08551,13.93991 72.59265,31.835834 l 9.10597,8.805235 13.26758,-7.965749 c 25.77407,-15.47454 48.06357,-22.65414 78.14918,-25.172391 27.23352,-2.279524 39.15068,3.259827 48.24562,22.425587 6.03132,12.709797 9.66704,27.041017 11.57309,45.618592 0.53435,5.20813 1.54484,9.9628 2.2596,10.63218 0.71115,0.66598 3.76799,2.0023 6.79299,2.9696 14.55344,4.65372 32.62206,16.40377 41.24551,26.82203 6.07653,7.34123 11.89208,17.2928 15.79967,27.03636 3.91492,9.76184 3.33413,9.24621 13.16296,11.68622 9.48255,2.35404 14.49095,9.23142 22.16213,30.43231 8.21797,22.71208 15.43035,32.45646 29.61561,40.0125 4.11723,2.19313 7.46141,4.4375 7.43152,4.9875 -0.0299,0.55 -1.23702,1.41592 -2.68251,1.92428 -3.74266,1.31622 -9.27555,-0.59394 -17.40079,-6.0074 -7.81956,-5.20979 -13.03795,-11.38716 -24.98184,-29.57274 -7.16037,-10.90227 -9.04232,-13.07803 -13.58218,-15.70267 l -5.27008,-3.0468 -0.70276,11.70267 c -1.26253,21.02428 -5.42507,40.17997 -14.16942,65.20661 -14.53611,41.60288 -16.62643,76.27616 -7.95915,132.02269 1.49154,9.59336 1.49974,11.33862 0.0924,19.68504 -1.39216,8.25652 -1.99606,9.7456 -6.13252,15.12123 -13.77946,17.90745 -31.67455,27.31118 -57.34871,30.1363 -16.33277,1.79721 -34.96625,-1.29504 -48.67292,-8.07733 -11.17781,-5.53097 -13.94591,-9.92608 -12.53197,-19.89788 0.42847,-3.0217 0.81188,-6.56432 0.85203,-7.87249 l 0.073,-2.37849 -12.25,0.72469 c -6.7375,0.39858 -12.37338,0.84228 -12.52418,0.986 -0.1508,0.14372 0.26188,6.52027 0.91707,14.1701 0.65518,7.64984 0.88499,15.12898 0.51068,16.62032 -0.3743,1.49135 -3.44678,5.66865 -6.82773,9.28289 -4.7322,5.05874 -8.00922,7.46761 -14.23651,10.46499 -16.23475,7.81426 -29.26171,10.74969 -40.08933,9.03352 z m 17.596,-8.73033 c 1.14454,-1.15733 -6.98466,-18.9645 -10.25647,-22.46699 -2.11899,-2.26838 -3.32845,-2.82441 -5.06189,-2.32713 -3.42317,0.98204 -8.49355,6.81333 -9.69899,11.1545 -1.36874,4.92931 -1.38441,12.03742 -0.0284,12.87549 3.55055,2.19437 23.04317,2.78908 25.04572,0.76413 z m 21.11848,-8.48746 C 474.67423,488.45026 476,486.5276 476,474.81563 c 0,-12.87757 -1.53152,-19.08478 -7.98674,-32.37011 -8.53127,-17.55796 -9.47916,-21.70245 -9.47905,-41.44552 8e-5,-14.25581 0.37804,-18.26815 2.77893,-29.5 3.61809,-16.92619 5.59638,-43.03391 3.8877,-51.30649 C 464.54038,316.99587 464,312.91387 464,311.12242 c 0,-2.91554 0.23601,-3.18484 2.25,-2.56742 6.38035,1.95601 7.26917,5.67315 7.16026,29.945 -0.0649,14.45551 -0.54996,22.21779 -1.74983,28 -0.91305,4.4 -1.66016,8.54516 -1.66026,9.21146 -3.2e-4,2.25082 8.08933,3.54898 18.49983,2.96869 10.07911,-0.56182 29.99082,-5.18275 32.96353,-7.64988 2.21753,-1.84039 3.31196,-6.63363 4.00264,-17.53027 0.83687,-13.20316 1.97751,-20.39989 5.6812,-35.84479 2.46502,-10.27948 3.6773,-13.52487 6.07,-16.25 2.89738,-3.29994 6.78263,-4.5933 6.78263,-2.25788 0,0.63103 -0.89701,3.66853 -1.99335,6.75 -4.01136,11.27468 -7.08614,32.3889 -8.02438,55.10267 -0.99518,24.09206 -2.03891,31.15515 -8.69349,58.82998 -5.13182,21.34203 -5.21012,20.50067 2.02164,21.72247 4.17894,0.70602 9.69305,4.95197 12.41486,9.55964 2.09721,3.55028 2.67721,3.5707 6.63036,0.23343 7.98374,-6.7399 21.89127,-10.73925 29.08696,-8.36446 7.04893,2.32635 13.58091,10.0587 18.60073,22.01894 1.26962,3.025 2.41893,5.65217 2.55403,5.83816 0.74578,1.02672 10.93257,-6.29332 17.55938,-12.61785 11.57198,-11.04413 11.23625,-9.44266 7.80445,-37.22705 -7.76809,-62.89165 -6.32254,-85.03672 8.54759,-130.94466 11.92644,-36.82004 15.12814,-53.43939 14.16908,-73.5486 -1.72933,-36.25962 -18.78663,-64.13921 -48.17786,-78.74512 -7.3456,-3.65038 -14.35254,-6.23567 -15.03929,-5.54893 -0.2229,0.22291 -1.33831,5.24016 -2.47869,11.14945 -6.2401,32.33547 -22.28915,58.92563 -48.94946,81.09979 -27.17109,22.59899 -53.57576,32.78813 -85.03256,32.8127 -16.49507,0.0129 -24.22316,-1.44466 -35.47651,-6.69101 -17.76761,-8.2833 -28.27973,-20.89486 -29.92071,-35.89634 -0.77771,-7.10968 0.17337,-6.77792 4.59673,1.60342 4.80944,9.11288 16.43307,20.35484 25.80049,24.9533 23.72708,11.64759 56.62087,9.65192 86.5,-5.24796 32.16181,-16.03819 59.14997,-45.83665 69.46293,-76.69616 8.34215,-24.96226 7.82178,-50.96894 -1.58656,-79.292228 -5.49478,-16.541718 -10.7045,-23.189707 -20.89328,-26.661372 -3.95167,-1.346472 -7.26292,-1.521219 -18.88741,-0.996761 -30.90004,1.394106 -54.69174,9.313176 -88.09568,29.322661 -8.25,4.94188 -19.95,11.635925 -26,14.875656 -9.89201,5.297104 -11.58338,5.884624 -16.79178,5.832884 -5.18731,-0.0515 -8.94444,-1.4711 -7.55937,-2.856166 0.28354,-0.283536 2.50354,-0.890423 4.93334,-1.348638 3.37577,-0.636611 27.15656,-13.219316 29.86182,-15.800258 C 421.87126,81.48428 408.20696,68.675525 401.68484,64.315593 384.89181,53.08973 356.45778,44.986375 328.27045,43.393379 c -25.25404,-1.427222 -59.78822,4.935055 -81.89234,15.087132 -10.45461,4.80164 -18.11372,10.377142 -26.30683,19.150245 -12.72699,13.627937 -21.87689,35.563774 -28.45485,68.217274 -3.78519,18.78997 -5.71903,24.04601 -10.99637,29.8874 -4.50524,4.98676 -8.23535,13.16461 -9.12392,20.00318 -0.67945,5.22911 0.83179,17.55592 2.47908,20.2213 1.46954,2.37776 8.87266,-4.682 19.06883,-18.18442 5.09831,-6.75152 10.39384,-13.49793 11.76784,-14.99203 l 2.49817,-2.71653 -2.69984,-4.07975 c -2.4308,-3.67318 -2.81043,-5.51198 -3.80947,-18.45188 -1.27774,-16.54964 -0.36807,-23.66616 3.79257,-29.66996 4.62837,-6.67875 12.63319,-8.47964 17.79759,-4.00405 2.92151,2.53186 7.42726,12.83519 8.15295,18.64344 0.93744,7.50299 -0.94402,14.93387 -6.52102,25.75494 l -4.87793,9.46465 6.38603,0.59634 c 7.60012,0.70971 13.4712,3.46923 16.53482,7.77169 l 2.23418,3.13762 -2.39997,-0.70029 c -1.31998,-0.38516 -4.77935,-1.56191 -7.68748,-2.61499 -12.96012,-4.69306 -19.1038,-1.9582 -31.61376,14.07287 -4.7293,6.06043 -8.59873,11.14745 -8.59873,11.3045 0,0.15705 4.3875,0.26808 9.75,0.24674 11.22469,-0.0447 17.2293,1.7426 21.76701,6.47895 3.3361,3.48214 3.63221,3.44111 -10.10523,1.40023 -8.62979,-1.28207 -11.88906,-1.36603 -17.19049,-0.44283 -10.80025,1.88078 -14.65852,4.91461 -19.639,15.44249 -2.50295,5.2908 -6.94713,21.55085 -6.11712,22.38087 0.22538,0.22537 3.02541,-0.87459 6.2223,-2.44437 5.24038,-2.5732 6.81796,-2.85414 16.02682,-2.85414 8.34088,0 10.53088,0.3166 11.94047,1.72619 0.94941,0.94941 1.38779,2.0646 0.97418,2.47821 -0.41361,0.4136 -4.43682,1.05026 -8.94048,1.41478 C 183.44239,258.35318 172,264.82685 172,272.2185 c 0,5.53902 2.74471,13.42383 9.62155,27.6401 6.29011,13.00335 6.53398,13.34084 9.1702,12.69104 6.16807,-1.52037 13.71599,-1.70129 15.48639,-0.37121 1.58741,1.1926 0.91389,1.64296 -6.27929,4.19877 -6.316,2.24414 -7.94639,3.21516 -7.54368,4.49284 0.28256,0.89648 1.46526,6.12996 2.62822,11.62996 1.80421,8.53265 2.01696,11.8709 1.44985,22.75023 l -0.66464,12.75023 2.8157,-1.10118 c 4.50812,-1.76306 14.35085,-1.4845 18.1806,0.51453 1.8507,0.96601 2.9757,2.1086 2.5,2.53908 -0.47569,0.43047 -7.11546,1.82874 -14.75502,3.10726 l -13.89013,2.32458 -13.32841,12.45404 c -7.33062,6.84972 -13.12693,12.78003 -12.88068,13.17847 0.24624,0.39844 1.69945,0.97478 3.22933,1.28076 3.90307,0.78061 12.26001,7.3849 12.26001,9.68879 0,2.50865 -1.49058,3.33195 -2.91818,1.6118 -1.68756,-2.03338 -9.89659,-5.3172 -15.28808,-6.11562 -5.50796,-0.81566 -5.424,-0.86864 -18.81071,11.87054 l -8.92521,8.49349 6.72109,0.61067 c 9.60807,0.87296 13.07011,1.99883 20.0816,6.53057 3.41384,2.20647 6.40177,4.01176 6.63985,4.01176 0.23809,0 2.6565,-1.97489 5.37425,-4.38864 2.71776,-2.41375 11.62028,-9.70939 19.78338,-16.21253 25.57244,-20.3723 48.01082,-45.08249 55.75395,-61.39883 2.88251,-6.07404 3.10778,-7.37654 3.4375,-19.87559 0.50358,-19.08958 -3.39667,-60.40553 -6.21211,-65.80597 -0.62553,-1.19986 -5.09679,-5.16582 -9.93613,-8.81326 C 227.98143,256.68676 225,253.19101 225,249.95795 c 0,-2.36122 5.31268,-3.82968 17.69646,-4.89143 35.76451,-3.06633 67.89672,-11.0766 93.57712,-23.32793 l 12.77358,-6.09388 2.72642,2.02344 c 13.01428,9.65866 13.73193,31.44726 1.40187,42.56251 -4.93691,4.4505 -19.15706,11.77024 -29.82005,15.34968 -11.23062,3.77 -21.20219,5.41966 -32.75971,5.41966 -11.41246,0 -18.85931,-1.0982 -28.82287,-4.25056 -3.69995,-1.17063 -6.9313,-1.9243 -7.18076,-1.67483 -0.70047,0.70046 3.42692,24.10845 4.74223,26.89504 0.814,1.72452 3.73027,3.59348 9.66571,6.19449 22.92326,10.04537 54.84854,6.22203 81.07451,-9.7094 3.2718,-1.98752 6.44435,-3.44845 7.05011,-3.24653 2.4879,0.8293 -11.43952,11.8998 -20.44398,16.25033 -13.13473,6.34606 -22.61647,8.64379 -38.18064,9.2524 -14.306,0.5594 -21.3976,-0.37833 -30.41939,-4.02239 l -5.86645,-2.36956 -0.4511,14.5905 c -0.28942,9.36085 -0.059,15.48658 0.64292,17.09051 2.264,5.17357 17.10439,10.49003 37.51493,13.43945 l 4.42092,0.63885 -8.99181,-8.46451 C 285.98524,342.79818 280,333.79611 280,328.52669 c 0,-3.99562 1.87014,-2.74764 6.81928,4.55063 8.66531,12.77833 18.36509,20.86329 33.56189,27.97448 9.25643,4.33146 48.95627,17.06483 49.43391,15.85548 0.17329,-0.43876 -2.86421,-7.62858 -6.75,-15.97736 C 359.17929,352.58114 356,344.96159 356,343.9976 c 0,-0.96399 0.63108,-2.27646 1.4024,-2.9166 1.98893,-1.65067 4.27862,1.88049 13.0882,20.18466 14.17338,29.44887 15.05463,33.9319 14.85225,75.5557 -0.1446,29.74033 -0.0248,32.26606 1.5,31.62892 3.27773,-1.36961 10.99181,-1.65995 14.38137,-0.5413 1.90156,0.62758 5.52869,3.21235 8.06028,5.74394 l 4.6029,4.6029 4.2533,-3.12791 C 421.40423,472.72789 423.43137,472 426.85184,472 c 3.86496,0 4.93597,0.50562 8.053,3.80177 1.97734,2.09098 5.84516,8.58796 8.59516,14.43773 5.79442,12.32584 4.24969,11.94877 18.71448,4.56824 z m -15.6783,-263.87422 c -5.94294,-1.48598 -14.72065,-6.1601 -21.35171,-11.36976 -10.58523,-8.31623 -13.91951,-18.34883 -12.71989,-38.27325 1.2613,-20.94873 6.58876,-39.44249 15.70973,-54.53484 7.64468,-12.64954 8.84532,-15.3396 11.33626,-25.39911 4.03592,-16.298846 8.37179,-20.802014 27.71291,-28.782159 23.39533,-9.652917 46.70296,-10.805848 62.40831,-3.087079 C 546.03782,77.550451 558,97.143805 558,115.95279 c 0,7.53383 -1.84162,20.18593 -3.13516,21.53885 -2.0001,2.09191 -2.83463,-2.34571 -2.84953,-15.15255 -0.0117,-10.07475 -0.45957,-14.58832 -1.90987,-19.24813 C 545.23077,87.42861 531.84456,75.374395 515.59537,72.014809 502.90073,69.39014 478.7016,74.107822 462,82.463364 c -10.10699,5.056367 -13.07734,9.019734 -15.54245,20.738416 -1.77772,8.45102 -4.43995,14.61449 -10.93167,25.30853 -10.00524,16.482 -14.69731,33.63785 -14.90273,54.48969 -0.0964,9.78359 0.27545,13.6434 1.71105,17.76154 2.44027,7.00009 10.13161,15.33775 17.47571,18.94422 4.94942,2.43052 6.86161,2.79424 14.69009,2.79424 l 9,0 13.75,-6.69552 c 7.5625,-3.68253 13.75,-6.28555 13.75,-5.78448 0,0.50107 -3.13571,4.04675 -6.96825,7.87928 -8.82944,8.82944 -17.12032,13.04382 -26.7998,13.62274 -3.70257,0.22144 -8.51567,-0.0434 -10.69577,-0.5885 z M 312.87713,180.49888 c -5.59525,-2.9145 -9.37169,-7.20381 -12.68083,-14.403 -2.16584,-4.71188 -2.46711,-6.69737 -2.35195,-15.5 0.14708,-11.24183 0.91894,-14.80989 4.5407,-20.98994 2.05321,-3.50355 4.04632,-5.0269 11.66505,-8.91573 5.26048,-2.68512 10.52707,-4.68082 12.31931,-4.66825 9.9905,0.0701 19.64642,10.61624 23.30898,25.45796 1.41074,5.71669 1.49741,7.8689 0.54141,13.44385 -2.14823,12.52752 -8.48399,22.4597 -16.7198,26.21057 -5.86453,2.67091 -14.80413,2.39545 -20.62287,-0.63546 z m 20.53887,-7.86702 c 1.88583,-1.43838 4.7012,-5.20648 6.25639,-8.37355 C 342.10247,159.30956 342.5,157.30498 342.5,150 c 0,-7.2781 -0.40108,-9.31675 -2.79009,-14.1816 -1.53454,-3.12489 -4.42351,-7.11578 -6.41992,-8.86865 -3.54935,-3.11637 -3.80371,-3.17698 -11.47006,-2.73318 -9.19214,0.53212 -11.72812,2.23875 -14.35424,9.65993 -2.13071,6.02118 -3.01867,20.43785 -1.58411,25.71938 3.72055,13.6978 17.87861,20.40084 27.53442,13.03598 z m -11.11153,-3.58777 c -4.41223,-2.69031 -5.8311,-7.70348 -4.40732,-15.57198 1.27702,-7.0574 5.5972,-12.05892 9.42014,-10.9058 5.81425,1.75377 10.48125,10.0151 9.12135,16.14622 -1.57249,7.08962 -2.73802,9.39093 -5.47227,10.80486 -3.72899,1.92834 -4.82095,1.86867 -8.6619,-0.4733 z M 328,158.58179 c 0,-2.43002 0.29671,-5.19142 0.65935,-6.13645 1.10102,-2.86922 -1.99074,-1.14369 -3.49972,1.95321 -1.07212,2.20032 -1.09787,3.33633 -0.12868,5.67616 1.74611,4.21549 2.96905,3.60056 2.96905,-1.49292 z m 78.82825,335.34192 c 2.28375,-9.89374 0.75716,-15.53538 -5.01089,-18.51816 C 395.31629,472.04372 385,475.57052 385,481.15485 c 0,3.18051 2.98517,9.75803 5.30085,11.67987 1.62245,1.34651 12.60746,6.05755 14.2774,6.12301 0.59304,0.0232 1.60554,-2.24206 2.25,-5.03402 z m 160.16777,-14.95833 c 9.64712,-1.01587 20.65485,-3.59146 21.55175,-5.04268 1.18239,-1.91314 -5.11097,-14.51365 -9.54808,-19.11707 C 574.56407,450.20375 574.13346,450 568.84356,450 c -6.97608,0 -15.6162,4.10814 -21.46233,10.20476 -4.39765,4.58607 -6.38123,9.06199 -6.38123,14.39915 0,3.52053 -0.43117,3.29343 9,4.74022 4.53604,0.69584 7.39663,0.6321 16.99602,-0.37875 z m -221.43731,-4.40535 c 5.43053,-1.6359 8.68145,-4.40609 10.35521,-8.82393 0.69818,-1.84282 0.83974,-13.17343 0.42478,-34 -0.55626,-27.91859 -0.0887,-39.77593 1.97329,-50.04429 0.10341,-0.51493 -8.87199,-3.97895 -19.94532,-7.69781 -17.83335,-5.98914 -21.31758,-6.83866 -30.5,-7.43644 -5.70167,-0.37119 -14.36816,-1.3345 -19.25887,-2.14069 -4.89071,-0.80619 -9.01308,-1.34229 -9.16081,-1.19133 -0.14774,0.15095 0.78272,3.42446 2.06767,7.27446 C 285.0574,381.11479 286,390.87495 286,416.94353 l 0,23.79881 4.87639,0.64687 c 5.54503,0.73558 11.92478,4.59731 15.41877,9.33315 l 2.34847,3.18316 3.7338,-5.00128 c 4.18874,-5.61066 8.86625,-8.89492 12.67623,-8.9005 4.07739,-0.006 12.62861,4.81316 16.56349,9.33453 6.69543,7.69336 9.24243,16.73634 5.97317,21.20733 -1.38332,1.89179 -1.44878,1.89247 -3.5,0.0361 C 342.94064,469.5413 342,467.81307 342,466.74125 c 0,-3.07153 -6.97151,-15.53949 -10.21504,-18.26874 -3.7223,-3.13211 -5.86668,-3.11607 -9.65574,0.0722 -3.26661,2.74867 -15.77046,21.97398 -16.30386,25.06802 -0.27937,1.6205 0.52274,1.97938 5.67464,2.539 9.23572,1.00322 28.42098,0.10661 34.05871,-1.59171 z M 532.50445,474.25 c 0.39514,-0.9625 0.9431,-5.8 1.2177,-10.75 0.45181,-8.14465 0.29357,-9.25907 -1.66509,-11.72593 -2.67717,-3.37181 -8.90186,-5.46268 -11.74034,-3.94358 -1.54858,0.82878 -2.25485,2.91816 -3.25199,9.62052 -0.70058,4.70899 -1.02221,9.2174 -0.71473,10.01869 0.47323,1.23321 12.85693,8.33303 14.79301,8.48112 0.35366,0.027 0.96631,-0.73832 1.36144,-1.70082 z M 300.09124,469.5 c 3.23284,-9.21692 1.79166,-15.95784 -4.05851,-18.98307 -3.37944,-1.74758 -9.28818,-1.98577 -12.08812,-0.48729 -2.90407,1.55421 -4.94461,6.32175 -4.94461,11.55262 0,4.0578 0.46783,5.12281 3.51114,7.99302 3.3536,3.16285 9.59763,5.44597 13.9076,5.08529 1.34497,-0.11255 2.44319,-1.65575 3.6725,-5.16057 z M 157.00488,441.9319 c -4.01748,-3.43321 -9.7686,-5.28029 -13.51398,-4.34026 -3.42318,0.85916 -2.82764,1.28806 6.27528,4.51935 10.02102,3.55719 11.5661,3.51897 7.2387,-0.17909 z M 497,443.45034 c 0,-0.30231 -0.67243,-1.85 -1.49429,-3.4393 -3.75587,-7.26304 -11.40169,-8.11617 -16.32768,-1.82185 -1.16306,1.48612 -0.86253,1.9316 2.5,3.7058 3.51992,1.85724 15.32197,3.05528 15.32197,1.55535 z m 11.54948,-3.73924 c 2.25005,-1.93541 3.3299,-4.98553 6.99223,-19.75 4.84583,-19.53572 8.98646,-40.76626 8.11975,-41.63297 -0.31318,-0.31319 -6.10263,1.34429 -12.86544,3.68329 -14.50171,5.01558 -26.01082,6.19678 -36.46415,3.7424 l -6.16813,-1.44825 -0.70889,9.45529 c -1.08059,14.41301 0.66248,27.38177 4.79024,35.64041 1.07244,2.14569 2.24353,3.48018 2.6024,2.96552 2.2272,-3.19395 6.7372,-5.36679 11.13949,-5.36679 6.39805,0 10.8237,3.06495 14.01302,9.70461 2.81206,5.85426 4.53455,6.45999 8.54948,3.00649 z M 316.04644,269.06651 c 6.29946,-1.65199 16.16925,-4.49635 21.93288,-6.32081 10.2905,-3.25742 10.53374,-3.40522 13.5,-8.20302 2.67411,-4.32528 3.01802,-5.75532 2.9975,-12.46426 -0.0179,-5.86276 -0.52406,-8.5252 -2.23571,-11.76057 -1.21689,-2.30018 -2.60039,-4.42186 -3.07443,-4.71484 -0.47405,-0.29297 -6.89298,2.12579 -14.26429,5.37504 -16.13327,7.11148 -32.31144,12.10997 -51.85682,16.02193 C 270.9692,249.41704 244.39427,253 238.54319,253 c -2.78442,0 -1.61259,1.44403 4.22146,5.20204 10.51383,6.77249 23.92133,11.98333 35.7119,13.87946 9.32701,1.49994 25.21534,0.2249 37.56989,-3.01499 z M 163.92339,253.25 c 1.10445,-3.7125 3.31154,-11.1375 4.90464,-16.5 1.59311,-5.3625 2.50283,-9.75 2.02161,-9.75 -0.48123,0 -4.03799,0.87652 -7.90391,1.94782 -11.16847,3.09494 -25.84673,4.4048 -41.19573,3.67623 -7.71578,-0.36624 -13.75,-0.26759 -13.75,0.2248 0,1.43979 9.41396,9.80111 15.20808,13.50756 6.97374,4.46105 15.79732,8.14557 26.62441,11.11772 12.36365,3.39396 11.77179,3.57139 14.0909,-4.22413 z m 502.91788,-44.79445 c -1.1502,-1.94945 -3.49753,-4.58731 -5.21627,-5.8619 -3.32794,-2.46794 -9.12608,-4.75924 -9.95236,-3.93296 -0.27356,0.27356 0.17223,2.4626 0.99066,4.86454 1.27051,3.72874 2.09826,4.58483 5.66237,5.85622 6.28002,2.24022 7.02817,2.45393 8.8906,2.5396 1.54587,0.0711 1.50863,-0.27298 -0.375,-3.4655 z M 171.10371,173.75 c 4.49634,-5.6375 8.73589,-11.15 9.42123,-12.25 0.68534,-1.1 2.70519,-9.425 4.48855,-18.5 4.27243,-21.74114 9.14853,-38.97844 14.02829,-49.590873 l 3.96773,-8.628947 -4.01591,-3.64009 c -2.20875,-2.00205 -6.14839,-6.774048 -8.75476,-10.60444 -3.19746,-4.699093 -6.34027,-7.95174 -9.66229,-10 -4.41021,-2.7192 -5.71327,-3.024826 -12.5,-2.931818 -8.22639,0.112738 -12.84808,1.650156 -18.00499,5.989408 -9.79198,8.239409 -14.36426,33.849752 -9.06593,50.78028 1.18307,3.78043 6.84257,16.308 12.57668,27.83905 5.73411,11.53104 10.12235,21.45629 9.75164,22.0561 -0.40453,0.65455 -2.78995,-1.18269 -5.96636,-4.59526 -6.63805,-7.13158 -20.32071,-34.12606 -23.35822,-46.08337 -4.7926,-18.866278 -0.8944,-41.678831 9.05924,-53.015405 7.15315,-8.146986 22.35165,-12.338627 33.25048,-9.170251 7.85389,2.283187 13.27728,6.843062 20.18091,16.967684 3.3,4.839664 6.84001,9.262557 7.86669,9.828651 1.5925,0.878081 3.31838,-0.416986 11.75,-8.816967 C 221.55251,63.968326 226,59.213875 226,58.818306 226,57.395293 207.69626,43.116761 201.93727,40.04725 c -22.17153,-11.817302 -43.06643,-10.057231 -58.0013,4.88571 -9.03009,9.034968 -13.93011,21.508026 -15.99928,40.726376 -2.65341,24.644724 3.74672,51.100884 18.18231,75.160054 5.11459,8.52425 15.4537,23.18061 16.35242,23.18061 0.25142,0 4.13595,-4.6125 8.63229,-10.25 z m 42.39037,-3.14969 2.57839,-4.39969 -2.16835,-4.16006 c -1.79211,-3.43825 -2.07865,-5.27749 -1.65141,-10.60007 0.61688,-7.68503 2.49341,-10.93971 6.80456,-11.80194 2.97612,-0.59523 3.14934,-0.8555 2.55318,-3.83628 -1.40438,-7.02193 -5.51769,-9.75217 -9.17793,-6.09193 -3.34547,3.34547 -4.30582,7.93317 -5.0087,23.9271 -0.6291,14.3151 -0.51802,16.28916 1.05139,18.68438 0.96515,1.473 1.90909,2.67818 2.09765,2.67818 0.18856,0 1.50311,-1.97986 2.92122,-4.39969 z m 9.02525,-20.21074 0.62748,-2.88957 -2.5734,2.80576 c -2.4901,2.71493 -3.35992,6.5744 -1.82715,8.10717 0.80467,0.80467 2.75801,-3.34908 3.77307,-8.02336 z"
         style="fill:#0a090a" />
    </g>
  </g>
</svg>
