<?xml version="1.0" encoding="utf-8"?>
<!-- Generator: Adobe Illustrator 12.0.0, SVG Export Plug-In . SVG Version: 6.00 Build 51448)  -->
<!DOCTYPE svg PUBLIC "-//W3C//DTD SVG 1.1//EN" "http://www.w3.org/Graphics/SVG/1.1/DTD/svg11.dtd" [
	<!ENTITY ns_svg "http://www.w3.org/2000/svg">
	<!ENTITY ns_xlink "http://www.w3.org/1999/xlink">
]>
<svg  version="1.1" id="Layer_1" xmlns="&ns_svg;" xmlns:xlink="&ns_xlink;" width="376" height="372" viewBox="0 0 376 372"
	 overflow="visible" enable-background="new 0 0 376 372" xml:space="preserve">
<g>
	<path fill-rule="evenodd" clip-rule="evenodd" d="M361.354,133.133c-1.306-10.058-6.096-19.993-15.281-24.994
		c-2.396-1.305-9.625-1.583-9.398-3.58c0.388-3.375-7.186-0.772-9.09-0.065c-11.133,4.135-20.848,13.679-14.317,24.862
		c6.005-4.28,22.462-3.771,18.491,7.379c-3.242,9.098-15.291,10.78-23.145,8.873c-16.23-3.942-31.285,0.696-47.431,3.119
		c-9.865,1.48-19.807,2.054-29.774,1.624c-8.398-0.362-17.646-3.028-25.689-2.722c1.069-9.359,0.865-16.027,0.176-25.872
		c-0.68-9.696-4.011-19.337-4.407-28.821c11.062,8.158,33.881,15.894,46.17,6.331c1.852-1.442,5.296-5.148,5.27-7.643
		c-0.055-5.362-25.428-13.762-31.18-16.384c-7.663-3.494-14.853-6.519-23.407-4.942c-7.94,1.464-10.887,4.799-17.807-1.867
		c-4.299-4.14,2.885-13.039,6.521-16.077c6.721-5.616,16.058-7.042,23.891-10.498c9.087-4.01,21.102-12.116,21.431-23.193
		c0.104-3.521-1.222-11.661-6.324-10.717c-3.566,0.659-8.757,11.521-13.656,13.705c-17.947,8-39.531,2.932-57.157,13.903
		c-7.262,4.52-12.207,11.413-15.919,18.953c-3.105,6.305-0.314,5.703-7.422,3.777c-1.458-0.395-1.798,0.813-3.755,0.063
		c-0.846-0.324-1.319-3.906-2.789-3.84c-3.191,0.143-4.39,11.757-8.519,5.491c-5.116,5.418-10.23,10.836-15.346,16.254
		c-3.307,3.502-9.393,1.721-14.077,2.281c-10.288,1.233-20.053,5.264-28.348,11.442c-13.183,9.821-24.933,23.309-42.181,25.257
		c-3.719,0.42-9.155-0.993-6.719,4.129c0.952,2.004,2.274,3.835,3.908,5.337c4.436,4.077,11.059,5.581,16.885,5.843
		c13.932,0.623,26.447-4.493,37.571-12.344c7.011-4.949,11.757-2.965,17.829,3.559c-13.479-0.286-21.042,19.161-23.539,29.957
		c-1.502,6.497-1.904,13.229-4.215,19.545c-1.646,4.497-4.866,7.566-0.835,11.598c7.643,7.644,21.995-2.823,27.097-8.83
		c5.575-6.564,7.898-14.337,9.989-22.454c6.892,7.655,14.614,14.563,23.035,20.499c6.229,4.393,5.007,6.728,5.31,14.506
		c0.116,2.992-1.647,18.262,3.781,12.134c1.79,21.321,6.68,42.234,17.452,60.824c9.765,16.852,15.222,37.835,7.075,56.631
		c-1.058,2.442-2.339,4.774-3.404,7.204c-1.652,3.766-4.905,9.416-6.104,14.233c-0.388,1.56-1.724,6.926-0.704,8.301
		c1.52,2.046,3.23-1.508,4.548-1.293c1.575,0.254,5.332,1.635,8.144,1.731c4.831,0.163,30.327-1.228,21.477-10.19
		c6.833-0.668,3.433-8.563,6.41-12.341c-1.062,5.37,0.103,8.839-0.571,12.429c-0.693,3.698-4.171,6.891-4.655,10.939
		c-1.016,8.497,8.583,8.987,8.344,0.659c-2.337,10.38,20.989,8.811,26.394,4.303c4.477-3.735,3.157-11.973-1.91-15.285
		c3.805-0.365,5.758-3.502,6.171-7.164c0.343,3.142-1.157,5.858-4.041,7.206c10.066,4.754,5.97-21.95,6.104-24.86
		c0.302-6.555,0.641-20.938,5.05-26.178c2.917-3.47,5.864-1.535,10.936-1.188c5.641,0.387,11.167-0.142,16.732-1.055
		c-1.771,2.744-2.148,6.204-0.791,9.227c9.188-8.29,8.598,3.46,7.23,11.06c-1.241,6.89-12.883,19.324-6.835,24.958
		c-3.48,3.072-6.09,6.835-7.729,11.178c-2.996,7.938,0.931,5.965,5.972,8.851c8.832,5.056,17.506-1.977,26.086-1.493
		c-4.168,12.158,20.122,12.381,27.58,9.686c5.298-1.912,10.788-4.049,11.374-10.035c0.206-2.085-0.48-4.422-1.362-6.283
		c-1.883-3.974-1.196-3.245-0.659-7.379c4.669-35.885,22.609-67.556,29.907-103.311c3.917,2.147,7.308-13.238,7.73-17.219
		c0.695-6.528-4.681-12.003-1.363-17.525c1.578-2.625-1.471-7.368-3.16-9.334c-2.851-3.318,1.046-5,2.46-8.807
		c1.731-4.661-0.197-5.964,4.698-6.852c8.537-1.547,6.428-18.587,5.545-24.196C361.249,146.036,361.741,136.837,361.354,133.133"/>
	<path fill="none" d="M328.187,119.102c0.556,0.512,1.105,1.031,1.671,1.531c0.105-1.13,0.176-2.263,0.224-3.395
		C329.779,118.541,329.195,119.307,328.187,119.102z"/>
	<path fill="none" d="M320.608,114.671c-0.167,0.37-0.457,0.667-0.829,0.913c0,0.035-0.003,0.07-0.006,0.104
		c0.988-0.146,1.978-0.307,2.968-0.526c-0.698-0.595-1.414-1.135-2.121-1.703C320.765,113.9,320.771,114.308,320.608,114.671z"/>
	<path fill="#047391" d="M319.526,115.732c0.085-0.012,0.166-0.032,0.247-0.044c0.003-0.034,0.006-0.069,0.006-0.104
		C319.701,115.637,319.613,115.685,319.526,115.732z"/>
	<g>
		<path fill-rule="evenodd" clip-rule="evenodd" fill="#FCEABE" d="M214.28,21.302c-7.465,3.78-15.901,2.831-24.02,4.085
			c-12.966,2.002-27.777,5.474-38.69,13.134c-11.513,8.08-16.25,21.661,1.976,22.314c1.282,0.046,2.283-1.422,3.25-1.406
			c3.632,0.062,17.863,6.146,20.684,4.568c2.552-1.428,0.453-5.034,1.426-6.347c1.33-1.793,2.921-3.396,4.524-4.942
			c2.542-2.45,5.558-4.63,8.631-6.37c13.312-7.539,26.966-9.159,36.561-21.962c2.47-3.297,5.021-11.104,0.678-14.276
			C224.022,6.247,218.545,18.199,214.28,21.302"/>
		<path fill-rule="evenodd" clip-rule="evenodd" fill="#FCEABE" d="M90.484,102.036c1.089-5.939,9.857-19.063,3.511-22.929
			c-6.831-4.163-23.838,5.444-30.082,9.049c-9.177,5.298-16.97,12.673-26.13,18.008c-3.41,1.986-25.46,8.494-26.437,11.465
			c-2.437,7.42,18.9,10.274,22.792,10.344c7.204,0.129,14.641-2.24,21.123-5.293c5.769-2.717,11.599-9.692,17.172-11.64
			c8.689-3.037,10.135,7.923,15.765,4.832c1.603-0.881,1.975-3.197,0.659-4.657C87.59,109.809,90.051,103.903,90.484,102.036"/>
		<path fill-rule="evenodd" clip-rule="evenodd" fill="#61421F" d="M161.232,169.769c3.017,2.547,7.083,2.714,10.758,1.626
			c-0.7,3.584,3.525,18.482,8.651,15.637c5.971-3.314-1.238-12.739-2.906-15.901c-1.397-2.643,8.217-7.881,5.717-12.212
			c-1.12-1.939-10.072,7.36-13.635,7.819C166.779,167.13,163.823,168.131,161.232,169.769"/>
		<path fill-rule="evenodd" clip-rule="evenodd" fill="#CE9A63" d="M179.104,168.144c2.284-1.306,3.785-1.979,3.514-4.964
			C181.643,165.115,180.252,166.338,179.104,168.144"/>
		<path fill-rule="evenodd" clip-rule="evenodd" fill="#F3E7D8" d="M359.115,130.544c-0.496-6.669-4.197-9.551-9.135-13.705
			c3.01,7.53,3.167,16.562-0.088,23.807c-1.218,2.714-4.363,10.297-6.376,11.845c-4.388,3.371-15.215,7.797-13.846,14.334
			c1.105,5.289,6.965,17.617,13.855,12.475c3.311-2.47,2.873-6.445-0.134-9.136c5.678,0.819,9.537-3.967,11.55-8.916
			c2.112-5.191,1.867-11.416,1.584-16.911C356.368,141.357,359.121,135.107,359.115,130.544 M126.759,104.452
			c2.734-0.227,4.502-3.1,6.675-5.359c-1.188,5.772,3.099,7.613,5.488,11.158c-0.39-2.944,0.517-2.799,1.055-5.359
			c1.286,1.809,3.342,3.39,4.349,5.359c-0.044-0.38-0.089-0.762-0.133-1.143c2.372,3.221,4.743,6.442,7.115,9.664
			c-3.288-6.154-8.853-13.353-10.146-20.074c1.14,0.901,7.599,7.627,8.652,3.119c0.447-1.918-2.225-4.639-3.775-5.842
			c8.508,1.02,3.788-5.769,2.02-8.873c4.359-3.553-2.106-5.634-5.445-4.261c1.861-4.905-1.938-6.672-5.796-3.338
			c-0.337-1.303-0.674-2.605-1.011-3.908c-0.512,0.468-1.024,0.937-1.537,1.405c-0.49-2.884-1.834-3.794-3.251-5.798
			c-0.263,0.703-0.526,1.406-0.789,2.109c-0.366-0.469-0.733-0.937-1.099-1.405c-1.221,2.626-1.825,5.538-1.757,8.433
			c-4.844-2.83-12.813,3.861-4.962,7.072c-6.269,5.695,0.561,6.535,0.484,11.992c1.014-0.842,2.549-1.175,3.469-2.108
			C124.724,99.906,124.725,102.361,126.759,104.452 M135.498,59.604c3.377,1.544,6.888,1.951,10.539,1.274
			c-3.725-1.339-7.729-2.061-11.682-1.603C132.763,59.459,135.258,59.515,135.498,59.604 M115.56,61.186
			c-0.927,0.667-1.721,0.92-2.284,2.02C117.42,61.572,115.56,61.244,115.56,61.186 M120.697,60.043
			C119.237,61.415,120.368,60.354,120.697,60.043 M196.014,186.767c2.142-15.405-15.679,0.208-19.104,0.967
			c-6.959,1.542-13.705,1.493-20.552-0.615c-4.321-1.33-29.611-16.009-30.217-7.143c-0.661,9.672,0.525,16.782,3.91,25.811
			c2.431,6.485,6.583,10.785,7.774,18.054c1.193,7.286,1.665,13.5,5.708,20.031c1.834,2.962,4.052,5.669,6.587,8.059
			c2.839,2.677,3.261,6.252,6.148,8.764c1.765,1.534,4.068,1.564,5.798,2.766c1.286,0.895,1.861,3.373,3.731,4.086
			c2.363,0.904,5.996,1.645,8.081-0.31c2.179-2.036,0.298-4.859,1.23-7.136c2.534-6.194,4.801-12.707,5.226-19.437
			c13.492,3.341,13.002-13.202,9.464-21.632c-3.323-7.92-1.494-6.298,2.437-14.167C195.028,199.275,196.344,193.01,196.014,186.767
			 M168.566,162.257C168.548,162.123,168.45,161.396,168.566,162.257 M267.067,279.449c-2.681-9.066-9.561-13.65-9.375-23.479
			c0.206-11.069,3.928-19.065,8.015-29.011c2.164-5.266,4.081-12.838-1.185-17.263c-6.417-5.391-12.826,2.101-16.16,7.774
			c-5.627,9.575-4.082,21.971-9.27,31.275c-3.876,6.955-9.652,10.295-11.593,18.733c-1.027,4.47-6.818,11.734-0.043,14.959
			c2.673,1.271,4.166-0.747,6.588-0.88c4.594-0.251,10.574-0.082,16.168,0.066c2.613,0.066,5.076,5.854,10.312,5.424
			C264.842,286.698,269.699,284.212,267.067,279.449"/>
		<path fill-rule="evenodd" clip-rule="evenodd" fill="#86592D" d="M257.101,327.77c-6.647-1.209-17.681,8.083-14.188,15.635
			c4.672,10.102,23.927,2.955,31.313,3.03c-1.763,15.983,34.727,14.845,36.845-0.217c1.263-8.984-12.683-12.133-19.65-13.904
			c-6.536-1.659-8.45,2.998-13.329,3.011C272.314,335.341,263.153,329.195,257.101,327.77"/>
		<path fill-rule="evenodd" clip-rule="evenodd" fill="#CC9966" d="M235.975,280.154c-0.658,0.443-1.281,0.947-1.93,1.404
			c1.675,0.078,3.621,0.078,5.27-0.221C238.194,280.981,237.102,280.475,235.975,280.154 M128.077,196.168
			c-1.027-1.896-2.202-2.669-2.723-4.657C124.199,194.477,127.219,199.23,128.077,196.168 M360.741,136.825
			c-0.339-1.976-0.816-3.915-1.538-5.798c-0.377,8.117-2.258,12.72-2.635,20.292c-0.282,5.627-1.118,10.586-4.566,15.111
			c4.943-4.15,4.089-10.174,5.05-15.945C357.766,146.215,361.219,141.125,360.741,136.825 M352.353,131.203
			c0.124-4.752-0.662-10.085-2.372-14.364c1.935,1.625,3.864,3.251,5.796,4.876c5.845-10.532-17.552-16.936-23.165-18.559
			c-4.08-1.179-22.229,12.334-20.882,18.339c2.137,9.512,19.603-3.815,21.652,8.434c0.792,4.726-3.082,9.716-6.984,11.86
			c-8.552,4.699-12.771,5.6-22.044,3.47c-19.321-4.437-38.995,3.158-58.276,4.875c-6.078,0.541-41.72,1.534-41.72-2.207
			c0-19.267-1.084-38.291-3.164-57.443c13.38,3.494,29.344,18.202,44.313,9.4c16.05-9.437-4.832-16.478-13.263-20.293
			c-8.153-3.69-16.521-8.403-25.603-9.159c-7.355-0.612-16.729,3.727-22.531,2.042c-7.032-2.043-13.013-8.02-20.638-9.927
			c-6.63-1.658-14.025-2.634-20.86-2.68c1.169,0.25,2.272,0.708,3.426,1.011c-3.483,0.646-5.576-0.5-8.783-0.835
			c-2.298-0.239-5.237-0.261-7.422-0.702c-0.955-0.193-1.482-2.622-2.898-2.548c-4.013,0.211-14.096,5.492-15.919,9.136
			c-5.896,11.784-16.44,18.697-19.764,32.505c-1.73,7.188-3.233,14.804-3.63,21.094c-0.128,2.035-14.615,11.188-17.075,14.924
			c-5.875,8.92-7.229,19.474-10.013,29.518c-1.385,4.995-6.523,10.917-3.118,15.33c2.445,3.168,9.075,3.038,12.428,2.395
			c13.698-2.631,22.511-20.662,25.295-32.702c4.934,10.35,35.163,19.718,31.051,30.308c8.006-6.593,21.673,5.238,30.894,8.039
			c6.81,2.069,13.753,1.884,20.618,0.22c-1.918-4.608-6.604-11.584-5.709-16.164c-3.675,1.088-7.741,0.921-10.758-1.626
			c3.827-2.419,8.25-1.526,11.856-3.339c3.324-1.671,13.048-14.196,9.53-2.986c-0.548,1.745-3.181,3.754-3.424,4.611
			c-1.159,4.092-0.437,5.098,2.279,9.972c1.099,1.972,1.493,3.431,1.278,5.666c5.906-6.958,12.586-4.036,13.262,3.997
			c0.872,10.359-6.128,15.056-7.992,23.852c-1.204,5.68,12.504,34.121-7.687,29.122c-0.425,6.729-2.692,13.242-5.226,19.437
			c-0.97,2.368,0.976,5.163-1.362,7.225c-5.066,4.467-15.927-5.168-19.103-8.608c-6.83-7.4-14.238-18.019-16.271-28.551
			c-1.021-5.292-0.525-10.195-2.875-15.242c-1.908-4.098-4.701-7.197-6.369-11.465c2.179,19.9,7.222,35.777,16.138,53.392
			c8.272,16.341,13.265,34.447,8.894,52.601c-1.186,4.922-4.126,9.609-5.029,14.495c-1.479,8.005,12.88,3.747,18.599,5.491
			c3.162,0.964,4.94,5.847,9.486,1.976c1.006-0.855,1.146-1.867,1.932-2.723c0.743-0.81-0.578-2.723-0.132-3.426
			c1.314-2.071,3.984-4.237,6.37-6.192c-2.276,2.773-3.871,7.434-2.198,10.891c2.568,5.31,5.568,2.357,11.068,2.596
			c5.867,0.254,13.834,6.02,18.882,1.753c7.227-6.11,1.272-55.286,12.604-53.062c-3.771-4.78,1.124-11.733,2.591-16.735
			c2.109-7.185,8.09-10.648,11.289-16.824c1.172-2.263,13.611-57.501,26.455-36.084c4.291,7.156,0.209,13.23-2.785,19.789
			c-4.26,9.325-6.284,19.242-5.381,29.494c0.525,5.97,12.94,16.081,10.122,22.557c-3.502,8.052-12.459,0.3-15.853,0.483
			c-0.377-0.416-0.698-0.87-0.968-1.362c-4.648,3.754-0.886,5.128,1.847,6.942c3.884,2.58,3.075-5.204,5.972,2.414
			c3.241,8.528-5.652,21.276-8.279,28.662c-3.547,9.979,6.982,7.038,14.383,9.468c4.257,1.399,9.926,5.049,14.01,4.787
			c2.06-0.134,4.438-2.481,6.72-3.141c6.869-1.988,17.774,8.377,22.528,5.688c7.031-3.977,5.019-25.896,6.763-32.286
			c3.88-14.218,10.244-27.791,15.019-41.729c2.602-7.589,4.92-15.251,6.938-23.015c1.46-5.608,3.14-8.879,5.754-13.266
			c4.163-6.981,4.75-13.306,3.294-21.788c-0.692-4.027-1.982-5.625,0.146-9.317c1.661-2.888-2.721-10.205-3.809-13.205
			c-1.19-3.28-4.59-1.823-7.054-4.688c-10.528-12.259-4.275-16.117,6.748-24.585C347.182,149.673,352.012,137.65,352.353,131.203
			 M120.697,60.043C120.368,60.354,119.237,61.415,120.697,60.043 M150.121,100.807c-2.546,4.96-5.852,0.35-8.96-2.109
			c1.293,6.721,6.858,13.919,10.146,20.074c-2.373-3.222-4.743-6.442-7.115-9.664c0.044,0.381,0.089,0.762,0.133,1.143
			c-1.006-1.969-3.063-3.551-4.349-5.359c-0.538,2.561-1.444,2.416-1.055,5.359c-2.389-3.545-6.675-5.386-5.488-11.158
			c-1.142,1.188-4.555,6.094-6.104,5.558c-3.094-1.072-2.357-5.141-0.967-7.358c-0.92,0.934-2.455,1.266-3.469,2.108
			c0.077-5.457-6.752-6.297-0.484-11.992c-7.851-3.21,0.118-9.902,4.962-7.072c-0.068-2.896,0.537-5.807,1.757-8.433
			c0.366,0.469,0.732,0.937,1.099,1.405c0.263-0.703,0.526-1.406,0.789-2.109c1.417,2.004,2.762,2.915,3.251,5.798
			c0.512-0.468,1.024-0.937,1.537-1.405c0.337,1.303,0.674,2.605,1.011,3.908c3.857-3.333,7.657-1.567,5.796,3.338
			c3.339-1.373,9.805,0.708,5.445,4.261c1.768,3.104,6.488,9.892-2.02,8.873C147.342,97.52,148.575,99.509,150.121,100.807
			 M168.566,162.257C168.45,161.396,168.548,162.123,168.566,162.257 M346.028,170.076c-1.031,0.207-1.533-0.441-2.636,0.088
			c0.459,0.947,1.535,2.455,2.238,3.25C346.795,171.708,346.158,170.712,346.028,170.076"/>
		<path fill-rule="evenodd" clip-rule="evenodd" fill="#86592D" d="M160.309,328.733c-6.729-0.323-18.336-1.372-17.565,9.313
			c0.737,10.229,16.354,6.237,23.055,5.358C182.878,341.168,172.188,331.514,160.309,328.733"/>
		<path fill-rule="evenodd" clip-rule="evenodd" fill="#86592D" d="M179.983,351.049c2.005-1.74,4.011-3.483,6.016-5.228
			c-0.297,9.414,28.305,12.139,26.877-2.33c-0.922-9.338-15.947-12.673-23.758-10.761
			C183.996,333.985,171.747,347.182,179.983,351.049"/>
		<path fill-rule="evenodd" clip-rule="evenodd" fill="#FFFFFF" d="M161.232,101.816
			C160.836,104.552,161.635,104.64,161.232,101.816"/>
		<path fill-rule="evenodd" clip-rule="evenodd" fill="#FFFFFF" d="M165.227,106.385c-0.441-0.471,0.44-1.868-1.272-0.879
			C163.926,106.967,164.876,106.011,165.227,106.385"/>
		<path fill-rule="evenodd" clip-rule="evenodd" fill="#FFFFFF" d="M120.785,120.309
			C121.419,125.397,125.745,120.93,120.785,120.309"/>
		<path fill-rule="evenodd" clip-rule="evenodd" fill="#FFFFFF" d="M122.277,126.151c-0.426,0.105-0.959-0.917-1.272,0.351
			C122.262,127.766,121.749,126.281,122.277,126.151"/>
		<path fill-rule="evenodd" clip-rule="evenodd" d="M205.588,146.664c1.981-17.335,1.52-38.273-5.491-55.608
			c11.205,8.515,29.073,14.914,42.949,9.268c3.288-1.338,9.226-4.868,9.485-9.004c0.283-4.49-17.253-12.653-26.128-14.025
			c0.481-0.015,0.966-0.052,1.449-0.119c-7.696-3.613-15.959-8.567-24.769-8.324c-6.918,0.192-11.887,4.529-18.181,1.911
			c-17.943-7.462,8.531-23.662,16.086-26.252c10.481-3.592,23.161-8.579,28.881-18.86c5.601-10.064-0.317-26.646-10.098-10.542
			c-9.245,12.551-33.883,9.019-47.125,12.631c-16.125,4.399-32.024,13.982-35.35,31.909c-2.904-2.287-6.227-2.85-8.827-0.132
			c-0.319-2.918-1.984-3.677-3.25-5.974c-2.998,2.709-4.531,10.417-8.519,5.491c-5.709,6.047-11.418,12.094-17.127,18.141
			c4.415,0.272,7.917-4.392,10.715-7.577c1.068-1.216,2.097-2.485,3.073-3.777c2.588-3.426,2.946-1.005,5.491-2.614
			c2.496-1.579,4.99-2.238,6.675-5.314c1.334,4.489-0.828,8.559-2.197,12.782c4.191-2.82,3.738-8.496,8.52-10.146
			c3.956-1.366,16.803,0.945,21.475,1.252c9.298,0.608,30.225,5.097,33.771,13.506c5.373-2.546,10.979-3.651,16.885-3.493
			c6.681,0.18,13.089,4.396,19.555,5.325c-0.18,0.014-0.356,0.029-0.517,0.056c5.675,2.363,11.252,4.992,16.849,7.543
			c5.448,2.482,11.75,2.559,9.853,8.27c-2.015,6.059-12.649,6.922-17.741,6.94c-9.843,0.035-16.867-4.665-25.604-8.522
			c-3.888-1.714-6.629-1.951-7.069-5.754c-0.388-3.34,1.958-6.568,4.805-8.076c3.743,0.14,8.086,0.069,11.861-0.094
			c8.646,2.576,17.518,11.033,25.801,11.157c-7.286-4.38-14.079-10.24-22.417-11.337c0.642-0.041,1.257-0.083,1.819-0.127
			c-4.717-1.549-9.878-2.033-14.8-1.406c-2.792-0.64-5.51-0.274-7.423,1.406c0.319,0.044,0.659,0.084,1.008,0.122
			c-6.131,3.199-0.812,20.196,0.268,24.74c3.492,14.719,4.62,30.198,2.811,45.243c2.444,0,4.889,0,7.332,0
			C208.773,147.178,206.788,146.706,205.588,146.664z M139.055,59.517c8.453-34.027,49.114-30.851,76.06-37.6
			c7.65-2.57,7.241-8.102,10.938-12.958c13.799,6.104-4.325,23.421-10.716,26.97c-13.449,7.469-35.559,9.986-38.076,28.683
			C165.961,58.035,151.694,58.273,139.055,59.517z M131.721,209.653c-0.862-3.963-1.128-18.396-6.367-14.013
			c1.703-6.42,2.325-12.822,1.712-19.459c7.876,4.253,16.164,7.71,24.811,10.058c8.36,2.27,7.317,2.368,11.42,8.565
			c5.713,8.632,11.605,11.858,12.252,21.919c2.58-2.182,3.963-5.444,2.81-8.697c-0.234,0.395-0.468,0.791-0.703,1.186
			c-4.008-8.158-12.074-12.867-15.985-20.864c3.767,0.728,5.982,5.429,9.794,7.423c-2.051-2.401-4.1-4.803-6.15-7.204
			c12.825,2.17,19.87-3.222,27.36-11.595c2.908,8.914,2.377,17.801-1.405,26.397c1.26-5.396,1.309-10.886-0.129-16.251
			c0.511,8.465-1.116,16.575-4.746,24.246c2.218-4.965,2.778-10.435,1.406-15.725c0.375,4.951-0.468,9.601-2.327,14.188
			c1.176-5.822,0.3-11.858-2.417-17.131c2.206,7.273,1.628,14.739-1.01,21.786c-0.204-6.264-2.816-12.025-7.597-16.12
			c3.908,5.888,7.169,11.798,5.138,19.107c2.899-0.649,5.268-0.654,8.346,0c-4.551-2.866,3.508-10.386,5.271-14.759
			c2.059-5.111,3.049-10.741,2.985-16.251c-0.086-7.533-3.063-11.097,1.141-17.396c4.226-6.333,6.762-13.843,8.036-21.302
			c7.383,5.679,21.742,3.991,30.481,4.116c13.981,0.199,27.593-2.37,41.321-4.6c-13.175,0-26.047,2.277-39.217,2.283
			c-11.739,0.005-23.212-2.283-34.912-2.283c-1.573,9.187-5.724,18.98-10.937,26.443c-1.711,2.452-4.122,6.374-7.247,7.292
			c-14,4.116-3.045-17.036-0.395-21.875c-0.541-0.263-1.083-0.527-1.624-0.79c-2.55,4.26-5.099,8.52-7.65,12.78
			c-1.136,1.899-11.924-0.443-14.352-0.656c1.535,3.474,7.957,3.352,11.9,3.558c2.018,0.106,6.367,7.52,5.446,9.356
			c-1.186,2.362-3.011,1.443-5.313,2.107c-7.466,2.156-18.042-0.326-25.12-2.833c-11.631-4.119-23.005-10.217-32.915-17.548
			c-5.154-3.814-16.642-19.877-23.342-17.834c0.99,12.065-6.569,26.134-17.127,32.043c-3.261,1.825-14.894,4.633-16.863-1.296
			c-0.547-1.646,5.069-12.136,5.62-14.318c1.368-5.414,1.272-11.075,2.812-16.429c-4.313,0.14-7.125,22.499-8.893,27.453
			c-3.749,10.499,8.781,10.71,15.854,7.292c12.568-6.075,19.421-18.215,21.629-31.626c6.727,7.504,14.264,13.939,22.266,20.03
			c6.69,5.093,5.923,6.127,6.267,14.996c0.124,3.192-1.809,18.292,3.79,12.325c0.391,4.664,0.139,19.233,5.281,19.722
			c-0.839,0-1.678,0-2.516,0c2.345,12.346,5.567,24.131,11.485,35.25c3.156,5.934,6.905,11.601,9.419,17.855
			c1.781,4.437,2.821,17.135,6.763,17.044c-0.317-2.45-0.756-4.883-1.317-7.292c0.234,0.441,0.469,0.88,0.703,1.317
			c-0.077-9.386-7.372-19.916-12.01-27.476c-6.773-11.033-11.326-23.678-11.924-36.699c-0.568-3.079,0.524-4.147,1.142-6.721
			c0.641,3.078,1.412,6.561,4.479,6.721C137.833,213.69,136.95,204.496,131.721,209.653z M360.257,127.908
			c-2.323-7.354-5.082-15.176-12.032-19.371c-3.913-2.362-7.507-2.45-11.815-3.778c-0.72-0.221,0.746-2.458-2.152-2.767
			c-1.888-0.201-4.378,0.699-6.167,1.317c-9.948,3.438-23.458,14.65-14.955,25.082c13.365-9.525,26.344,6.042,12.033,15.197
			c-4.249,2.719-8.556,2.637-13.394,1.889c-17.004-2.631-30.221-1.477-47.385,1.801c10.716,0,21.474-2.477,32.125-1.933
			c4.415,0.226,9.361,1.353,14.254,1.976c3.932,1.37,8.025,1.653,11.897-0.043c-0.433,0-0.865,0-1.297,0
			c1.928-0.395,3.769-1.068,5.47-2.152c8.077-5.154,10.562-29.502-1.188-23.939c1.635,1.476,3.14,3.429,4.962,4.656
			c-6.134-5.142-20.54,2.288-18.18-7.292c1.224-4.968,14.629-13.024,20.99-14.187c-3.095,5.808,6.615,3.564,10.409,4.985
			c3.772,1.413,6.963,3.969,9.266,7.27c-0.979,0.25-1.961,0.498-2.943,0.748c6.621,6.76,9.316,15.588,7.818,24.905
			c-2.475-0.815-3.757-0.093-6.15,0.439c0.511,2.539,1.711,4.255,3.814,4.568c-0.599,0-1.194,0-1.793,0
			c1.384,4.513,2.399,13.324-1.054,17.175c-1.635,1.823-4.802,0.984-5.709,2.02c-2.747,3.144-1.021,8.107-3.777,11.071
			c-3.732,4.014-6.588-1.312-12.208-1.759c5.91,5.129,9.416,10.071,14.229,16.384c-1.166-0.395-2.646-0.086-3.864-0.35
			c-0.079,8.369,6.197,17.918,2.635,25.651c9.152-0.005,2.665-17.405,0.394-22.05c7.191-0.667,0.771-9.889-2.328-12.562
			c4.044-3.504,5.803-8.515,5.579-13.793c10.513,3.789,10.885-15.898,9.527-21.786c-0.033-0.725-0.592-1.431-0.612-2.152
			C362.46,145.053,361.654,132.321,360.257,127.908z M83.369,118.069c0.81,0.996,1.979,1.77,2.854,2.723
			c-12.351-0.173-19.85,16.578-22.616,26.487c5.809-0.543,10.258-21.465,20.662-24.412c9.525-2.698,8.542-37.288,18.159-45.692
			c-24.788-0.119-39.111,8.297-58.005,23.522c-6.657,5.363-12.573,10.174-20.912,12.365c-6.248,1.642-18.394-0.798-11.901,8.016
			c8.568,11.632,27.346,9.422,39.304,5.513C60.763,123.371,74.528,107.187,83.369,118.069z M69.14,113.5
			c-13.671,11.639-46.226,23.332-57.749,2.855c34.97-0.177,49.802-42.484,86.25-36.634c-6.36,11.565-10.184,24.886-11.11,38.04
			c-4.356-6.469-12.781-8.507-19.807-5.359C67.529,112.768,68.335,113.134,69.14,113.5z M81.919,133.399
			c7.65-4.693,6.168,16.612,15.106,13.88c-3.898-6.537-8.187-20.324-16.972-15.417c-5.911,3.3-8.001,9.243-9.992,15.417
			C75.335,147.595,77.509,136.99,81.919,133.399z M72.829,147.279c-0.923,0-1.844,0-2.767,0c-2.864,7.706-4.772,15.757-6.763,23.72
			C65.606,162.841,68.884,154.78,72.829,147.279z M182.752,217.471c-2.972-0.375-4.578,1.567-5.271,4.569
			C179.91,222.428,181.699,220.404,182.752,217.471z M173.066,270.864c-2.732-1.789-4.942-4.373-6.433-7.271
			c1.728,0.687,3.718,0.977,5.357,1.843c-4.404-2.559-7.42-5.328-12.515-4.829c-6.018,0.586-6.21-5.956-8.345-11.114
			c-0.001,0.451-0.499,2.678-0.438,3.866c-5.577-6.375-9.339-14.479-10.232-22.93c1.972,3.994,4.714,7.578,8.035,10.543
			c-0.505-2.591,0.179-2.242,0.352-4.481c3.631,5.153,7.261,10.307,10.892,15.461c-3.083-5.918-6.556-17.978-12.166-21.303
			c-0.06,1.766-0.993,3.504-1.054,5.27c-3.536-5.752-6.306-11.956-8.168-18.449c-0.746,0-1.493,0-2.239,0
			c3.562,13.229,2.271,28.546,14.448,37.93c2.148,1.655,2.18,6.023,4.217,7.271c1.822,1.114,9.572-1.195,10.167,1.009
			c0.696,2.578,2.215,4.787,4.084,6.655c3.726,3.725,6.866,16.447,11.308,17.284C178.694,282.671,177.488,273.76,173.066,270.864z
			 M192.389,225.532c-0.651-4.022-2.856-8.693-7.485-8.061c3.129,2.213,5.204,5.631,5.84,9.401
			c-6.008-0.736,2.304,9.532-2.238,13.748c-2.529,2.345-7.061,2.226-10.016,0.967c-3.068,8.34-4.467,17.385-4.04,26.267
			c-0.658-0.501-1.396-0.846-2.064-1.317c-0.947-0.329-1.534-0.737-2.635-0.704c1.629,1.762,3.673,2.771,5.885,3.473
			c1.26-8.333,2.518-16.664,3.776-24.995c6.985,2.201,11.835-2.412,12.825-8.653c0.215-1.356-0.484-3.401-0.945-4.657
			C190.219,228.079,192.884,228.582,192.389,225.532z M206.464,334.973c5.598,5.851,7.791,12.59-0.876,15.769
			c-3.32,1.218-7.264,1.396-10.762,1.23c-8.788-0.414-7.729-2.877-7.729-11.511c-3.209,3.372-4.292,11.157-9.092,9.751
			c0.479-5.467,3.082-16.525,9.794-16.514c-7.791-3.327-2.174-16.394-2.504-23.477c-0.363-7.84-2.591-15.173-4.961-22.602
			c-0.644,0-1.289,0-1.932,0c2.192,6.38,3.607,12.94,3.997,19.678c0.139,2.418,0.144,4.83,0.043,7.25
			c-0.217,5.24-3.217,5.51-4.478,9.794c-2.645,8.984,0.263,8.728-8.125,6.018c-4.278-1.382-7.826-3.005-12.471-2.943
			c5.738,6.07,14.816,2.668,18.487,12.432c-8.953,3.104-18.395,4.275-27.798,3.073c0.747-3.629,1.493-7.259,2.24-10.891
			c-4.637,1.271-3.932,7.017-7.289,10.144c0.506-4.098,1.958-8.277,4.215-11.746c3.309-5.088,3.546-9.168,5.708-14.85
			c1.836-4.819,9.063-28.16,1.845-27.958c1.236,11.619-1.144,21.601-5.445,32.198c-1.831,4.514-4.155,8.132-6.127,13.024
			c-1.367,3.394-4.469,17.756,2.439,10.256c3.495,6.273,38.711,1.1,29.687-7.908c6.212-0.825,4.186-8.321,6.41-12.341
			c-1.064,5.385,0.078,8.796-0.57,12.428c-0.558,3.125-3.483,6.498-4.347,9.776c-2.428,9.196,6.622,9.691,7.896,3.919
			c-0.085-0.64-0.056-1.332,0.139-2.097c0.073,0.779,0,1.466-0.139,2.097c1.061,8.012,22.529,6.513,27.149,1.769
			C216.209,346.281,213.411,335.883,206.464,334.973z M332.939,248.833c-4.593,12.894-8.252,25.993-13.305,38.787
			c10.803,0.317,19.714-50.039,21.432-58.509c4.84,1.824,5.626-7.674,5.577-11.64c-0.849,0-1.698,0-2.547,0
			c-0.632,2.777-1.176,5.577-1.626,8.391C337.388,222.321,334.766,243.71,332.939,248.833z M260.35,206.929
			c1.102-1.481,2.069-3.373,3.427-4.611c-6.292,0.236-13.271,9.917-16.557,15.153c4.819-0.397,5.087-6.06,9.265-8.082
			c1.889-0.913,5.481,0.382,8.519,0.439c-0.79,0.482-1.579,0.965-2.368,1.449c1.376,2.885,2.619,5.974,5.486,6.193
			c-1.071-1.92-1.051-4-2.635-5.797C268.918,208.322,263.959,206.591,260.35,206.929z M312.712,322.117
			c1.287-12.074,4.297-23.543,9.558-34.497c-6.096-0.414-8.972,17.366-9.923,22.426c-2.013,10.673,1.277,17.799-7.993,24.444
			c1.855,0.801,7.703,9.887,6.104,13.834c-1.202,2.976-7.5,5.08-10.231,5.952c-3.427,1.098-13.797,3.855-16.426,0.066
			c-1.45-2.088,2.917-11.641,3.294-15.199c-4.113,3.369-7.216,8.059-8.52,13.224c-6.549-1.182,0.853-16.908,5.05-16.034
			c-3.345-9.044,2.408-17.561,4.303-27.233c0.905-4.617-0.014-19.95,4.349-21.479c-0.167-0.051-0.3-0.066-0.457-0.104
			c1.151-0.554,1.97-1.569,2.17-3.147c-17.974-1.485-31.17-5.48-35.528-24.466c-1.951-8.506-1.336-18.092,2.086-26.134
			c2.551-5.994,8.513-8.117,7.575-16.297c-0.774,0-1.552,0-2.326,0c1.507,6.976-0.927,8.371-4.391,12.431
			c-6.19,7.254-7.154,13.936-5.887,24.511c1.193,9.944,3.968,18.896,11.947,25.457c4.99,4.101,17.348,5.413,19.453,7.751
			c0.317,0.094,0.63,0.155,0.942,0.218c-2.574,1.958-1.128,8.187-1.512,12.103c-0.441,4.506-1.084,8.997-2.043,13.42
			c-1.628,7.507-3.799,16.367-5.598,22.664c-4.104-4.007-9.682-6.261-15.415-6.191c2.727,1.021,13.124,4.699,13.567,7.817
			c0.792,5.554-9.167,7.82-12.865,8.347c-5.496,0.782-10.154,0.496-15.524-1.205c-1.27-0.402,2.529-11.695-0.637-8.436
			c-2.006,2.068-3.487,4.515-4.35,7.269c0.966-4.458,3.486-14.783,9.531-12.254c1.004-1.016,0.039-1.287-0.309-2.329
			c1.147,0.068,1.437,0.719,2.33-0.131c-8.227-6.028,0.969-13.967,3.161-22.316c1.459-5.561-0.64-18.982,5.754-18.975
			c-0.883,0-1.767,0-2.65,0c3.578-0.333,7.001-1.266,9.983-3.645c-4.02-1.638-16.76,0.925-20.597,2.853
			c0.403-5.625,13.569-7.276,11.771-9.485c-1.993-2.448-6.361,0.437-8.477,1.144c-9.191,3.066-20.156,2.927-29.645,1.534
			c3.918-9.994,7.265-17.347,10.144-28.42c0.967,0.717,1.934,1.436,2.898,2.152c5.255-11.422,5.53-25.802,12.3-36.282
			c-3.118,0.221-4.656,2.341-5.667,5.579c-0.788-1.229-2.267-2.094-2.943-3.382c0.006,10.297-1.625,20.073-4.565,29.914
			c-3.772-8.206-4.273,3.361-5.357,6.984c-1.236,4.126-5.002,6.188-5.929,8.258c-1.678,3.738-1.584,9.313-3.207,13.484
			c-1.241,3.19-2.727,5.816-3.556,9.313c0.308,0.059,0.573,0.089,0.831,0.115c-9.567,3.324,1.674,43.687-7.815,48.201
			c7.115,1.834,6.591-6.913,6.412-11.464c-0.5-12.783,0.275-24.529,3.907-36.853c-0.245-0.051-0.461-0.051-0.688-0.069
			c1.907-0.895-0.043-4.291,2.489-5.288c1.712-0.674,6.284,1.134,8.301,1.317c6.16,0.565,12.318,0.187,18.4-0.925
			c-1.104,1.6-0.883,3.366-1.626,4.965c-0.056,1.415,0.18,2.985,0.834,4.262c1.854-0.978,3.184-2.193,3.994-4.173
			c0.164,0.005,0.327,0.011,0.491,0.015c1.038,0.404,2.076,0.81,3.114,1.215c2.155,7.364-0.542,16.903-3.602,23.809
			c-2.245,5.064-9.159,9.746-3.603,15.152c-3.165,2.71-5.664,6.183-7.288,10.014c-3.779,8.915-0.146,5.92,4.324,9.226
			c7.24,5.358,23.07,2.354,28.173-3.909c-1.952,9.234-1.355,10.392,7.025,12.781c5.343,1.526,10.936,2.366,16.427,0.992
			c12.446-3.119,20.24-11.964,9.001-23.043C313.389,331.736,312.149,327.409,312.712,322.117z M177.964,44.934
			c-0.499-0.776-0.997-1.553-1.495-2.328C176.665,43.547,175.623,44.31,177.964,44.934z M181.521,42.913
			c1.693,1.435,1.273-0.199,1.713-0.482C182.698,42.776,182.014,41.822,181.521,42.913z M163.25,50.117
			c2.651,1.45,5.301,2.898,7.951,4.349C169.271,52.043,166.22,51.358,163.25,50.117z M157.017,55.388
			c4.289,0.141,8.532,1.108,12.471,2.811C165.967,55.259,161.439,53.659,157.017,55.388z M170.498,47.173
			c-0.128-0.646-0.055,1.285,2.503,2.944C172.832,48.073,171.741,48.148,170.498,47.173z M170.366,109.942
			c3.702-4.835-6.235-12.042-10.539-9.926C154.161,105.384,166.694,114.739,170.366,109.942z M160.353,102.211
			C162.373,103.775,162.13,104.543,160.353,102.211L160.353,102.211z M163.955,105.506c1.035-1.004,0.992,0.317,1.537,0.308
			C164.813,105.826,164.416,107.466,163.955,105.506z M122.894,117.454c-6.156,1.985-6.686,15.202,0.942,15.483
			C129.858,133.159,131.66,117.371,122.894,117.454z M121.355,126.766c-0.843-1.342,0.352-0.492,0.747-0.879
			C121.789,126.193,122.743,127.346,121.355,126.766z M120.301,121.495C124.376,118.54,124.124,124.699,120.301,121.495
			L120.301,121.495z M82.139,92.812c-1.327,0.559-3,7.622-1.8,11.025C80.939,100.162,81.539,96.487,82.139,92.812z M86.925,91.055
			c-3.091,3.147-3.821,8.88-2.723,13.309C85.11,99.928,86.017,95.491,86.925,91.055z M77.263,93.602
			c-1.399,3.26-1.587,6.903-0.876,10.367C76.678,100.513,76.971,97.058,77.263,93.602z M67.164,104.364
			c1.907-0.932,0.339-1.297,0.307-2.328C67.498,102.897,66.184,103.105,67.164,104.364z M38.926,117.937
			c-0.024,1.214,0.885,1.152,1.361,1.933C40.497,120.213,40.419,118.739,38.926,117.937z M149.771,327.11
			c2.207,1.595,4.288,1.574,6.894,1.185C154.309,327.089,152.259,326.452,149.771,327.11z M307.559,338.926
			c-3.227-1.575-12.133-3.838-15.502-2.109C296.883,339.307,302.243,339.947,307.559,338.926z M345.326,147.894
			c0.366-0.879,0.731-1.756,1.098-2.635c-3.689,7.08-12.577,17.75-20.464,17.043c0.519,3.01,0.764,6.282,2.193,8.609
			C330.586,161.544,341.093,157.632,345.326,147.894z M202.644,333.39c-2.779-1.391-5.918-1.466-8.651,0
			C197.007,333.677,200.435,334.342,202.644,333.39z"/>
	</g>
</g>
</svg>
